<?xml version="1.0" encoding="UTF-8" standalone="no"?>
<!-- Generator: Adobe Illustrator 15.0.0, SVG Export Plug-In . SVG Version: 6.00 Build 0)  -->

<svg
   xmlns:dc="http://purl.org/dc/elements/1.1/"
   xmlns:cc="http://creativecommons.org/ns#"
   xmlns:rdf="http://www.w3.org/1999/02/22-rdf-syntax-ns#"
   xmlns:svg="http://www.w3.org/2000/svg"
   xmlns="http://www.w3.org/2000/svg"
   xmlns:sodipodi="http://sodipodi.sourceforge.net/DTD/sodipodi-0.dtd"
   xmlns:inkscape="http://www.inkscape.org/namespaces/inkscape"
   id="Capa_1"
   enable-background="new 0 0 595.28 841.89"
   xml:space="preserve"
   viewBox="0 0 595.28 841.89"
   version="1.1"
   y="0px"
   x="0px"
   inkscape:version="0.48.5 r10040"
   width="100%"
   height="100%"
   sodipodi:docname="1361788306.svg"><defs
   id="defs23" /><sodipodi:namedview
   pagecolor="#ffffff"
   bordercolor="#666666"
   borderopacity="1"
   objecttolerance="10"
   gridtolerance="10"
   guidetolerance="10"
   inkscape:pageopacity="0"
   inkscape:pageshadow="2"
   inkscape:window-width="1366"
   inkscape:window-height="705"
   id="namedview21"
   showgrid="false"
   inkscape:zoom="1"
   inkscape:cx="32.835332"
   inkscape:cy="614.48373"
   inkscape:window-x="-8"
   inkscape:window-y="-8"
   inkscape:window-maximized="1"
   inkscape:current-layer="Capa_1" />
<g
   id="g3"
   style="fill:none;stroke:#000000;stroke-opacity:1">
	<path
   d="m420.02 297.6c0 85.241-62.653 154.34-139.95 154.34-77.292 0-139.95-69.099-139.95-154.34s62.658-154.34 139.95-154.34c77.29 0 139.95 69.1 139.95 154.34z"
   fill="#BF0411"
   id="path5"
   style="fill:none;stroke:#000000;stroke-opacity:1" />
	<path
   stroke="#A2A1A6"
   stroke-miterlimit="10"
   d="m332.97 462.29c-14.951 1.487-41.366 51.341-36.056 65.483 5.309 14.138 41.742 10.418 54.73 30.504 12.981 20.094-19.308 55.813 0 71.442 19.309 15.627 73.814 0.742 67.492 26.042-6.318 25.299-66.356 41.671-54.511 61.764 11.851 20.093 77.423-2.976 79.002 21.581"
   fill="#FFFFFF"
   id="path7"
   style="fill:none;stroke:#000000;stroke-opacity:1" />
	<path
   d="m312.17 465.02c4.224-6.823 45.286 8.532 50.717 6.257 5.433-2.278-15.096-32.422-21.732-34.13-6.643-1.705-53.744 13.088-57.97 17.068-4.226 3.981-14.49 30.144-8.453 32.984 6.037 2.848 53.138-11.939 53.138-11.939"
   fill="#BF0411"
   id="path9"
   style="fill:none;stroke:#000000;stroke-opacity:1" />
	<path
   d="m391.58 273.28c4.168-11.076-43.11-32.969-55.824-11.061 19.773 21.088 18.781 105.76 17.331 128.89 28.12-16.42 34.31-106.75 38.49-117.83z"
   fill="#ECCFD3"
   id="path11"
   style="fill:none;stroke:#000000;stroke-opacity:1" />
	<path
   stroke="#A2A1A6"
   stroke-miterlimit="10"
   d="m283.18 454.21c8.336 3.356 48.02-10.49 57.97-17.068"
   fill="none"
   id="path13"
   style="fill:none;stroke:#000000;stroke-opacity:1" />
	<path
   stroke="#A2A1A6"
   stroke-miterlimit="10"
   d="m280.06 451.42c8.335 3.355 54.961-10.491 64.908-17.069"
   fill="none"
   id="path15"
   style="fill:none;stroke:#000000;stroke-opacity:1" />
	<path
   d="m185.14 205.73c-0.047-4.789 21.28-7.299 23.075 2.741-10.603 5.647-22.196 38.414-24.902 47.505-8.53-9.86 1.86-45.45 1.82-50.25z"
   fill="#ECCFD3"
   id="path17"
   style="fill:none;stroke:#000000;stroke-opacity:1" />
</g>
<metadata
   id="metadata19"><rdf:RDF><cc:Work><dc:format>image/svg+xml</dc:format><dc:type
         rdf:resource="http://purl.org/dc/dcmitype/StillImage" /><cc:license
         rdf:resource="http://creativecommons.org/licenses/publicdomain/" /><dc:publisher><cc:Agent
           rdf:about="http://openclipart.org/"><dc:title>Openclipart</dc:title></cc:Agent></dc:publisher><dc:title></dc:title><dc:date>2013-02-25T05:31:46</dc:date><dc:description /><dc:source>https://openclipart.org/detail/175311/red-balloon-by-estitic-175311</dc:source><dc:creator><cc:Agent><dc:title>estitic</dc:title></cc:Agent></dc:creator><dc:subject><rdf:Bag><rdf:li>balloon</rdf:li><rdf:li>red</rdf:li></rdf:Bag></dc:subject></cc:Work><cc:License
       rdf:about="http://creativecommons.org/licenses/publicdomain/"><cc:permits
         rdf:resource="http://creativecommons.org/ns#Reproduction" /><cc:permits
         rdf:resource="http://creativecommons.org/ns#Distribution" /><cc:permits
         rdf:resource="http://creativecommons.org/ns#DerivativeWorks" /></cc:License></rdf:RDF></metadata></svg>