<?xml version="1.0" encoding="UTF-8" standalone="no"?>
<!-- Created with Inkscape (http://www.inkscape.org/) -->

<svg
   xmlns:dc="http://purl.org/dc/elements/1.1/"
   xmlns:cc="http://creativecommons.org/ns#"
   xmlns:rdf="http://www.w3.org/1999/02/22-rdf-syntax-ns#"
   xmlns:svg="http://www.w3.org/2000/svg"
   xmlns="http://www.w3.org/2000/svg"
   xmlns:sodipodi="http://sodipodi.sourceforge.net/DTD/sodipodi-0.dtd"
   xmlns:inkscape="http://www.inkscape.org/namespaces/inkscape"
   id="svg1323"
   sodipodi:docname="Machovka-bat.svg"
   viewBox="0 0 612.52 370.24"
   sodipodi:version="0.32"
   version="1.0"
   inkscape:version="0.48.5 r10040"
   width="100%"
   height="100%">
  <defs
     id="defs1326" />
  <sodipodi:namedview
     id="base"
     bordercolor="#666666"
     inkscape:pageshadow="2"
     inkscape:window-y="-8"
     pagecolor="#ffffff"
     inkscape:zoom="1.0204647"
     inkscape:window-x="-8"
     borderopacity="1.0"
     inkscape:current-layer="svg1323"
     inkscape:cx="219.17571"
     inkscape:cy="230.81837"
     inkscape:window-height="705"
     inkscape:pageopacity="0.0"
     inkscape:window-width="1366"
     showgrid="false"
     inkscape:window-maximized="1" />
  <path
     inkscape:connector-curvature="0"
     d="m 1.972,297.69 c 31.273,-2.24 64.65,-0.91 92.03,21.71 15.5,36.76 39.6,-5.25 61.69,-4.89 27.24,-5.14 55.79,5.83 70.49,39.29 12.12,35.16 34.24,-20.26 54.31,-17.49 36.96,-13.33 77.6,2.29 107.33,33.05 -0.98,-44.7 29.7,-73.64 54.84,-95.15 11.52,-18.19 47.35,0.27 33.71,-33.89 -1.58,-34.38 3.79,-75.17 28.43,-93.4 16.5,-22.91 50.53,0.17 49.25,-40.95 13.06,-40.76 36.12,-73.83 58.47,-105.97 -23.56,7.7 -44.18,27.05 -68.69,30.77 -31.55,11.33 -65.97,16.94 -97.12,0.37 3.19,30.34 0.02,62.34 -13.74,87.58 -15.81,32.57 -33.14,65.86 -56.91,88.69 -17.21,-0.61 -25.88,-29.18 -37.15,-44.16 4.95,24.16 -5.38,29.81 -21.59,29.16 -13.32,16.19 -23.77,4.47 -34.39,-9.78 -1.89,21.05 17.87,63.9 -1.42,69.2 -32.15,3.15 -64.44,-6.47 -95.11,-18.73 -26.39,-12.06 -50.33,-31.93 -73.51,-52.31 -14.42,38.97 -42.9,63.9 -68.8,87.9 -13.547,10.74 -27.438,20.74 -41.799,29.41"
     style="fill:none;stroke:#000000;stroke-opacity:1;stroke-width:0.99921263;stroke-miterlimit:4;stroke-dasharray:none"
     id="path1352" />
  <g
     style="fill:none;stroke:#000000;stroke-opacity:1;stroke-width:0.99921263;stroke-miterlimit:4;stroke-dasharray:none"
     transform="translate(-68.498,-355.43)"
     id="g6386">
    <path
       inkscape:connector-curvature="0"
       d="m 402.54,595.44 10,-5.17 12.43,-13.88 -14.84,-8.15 -7.59,27.2 z"
       style="fill:none;stroke:#000000;stroke-width:0.99921263;stroke-opacity:1;stroke-miterlimit:4;stroke-dasharray:none"
       sodipodi:nodetypes="ccccc"
       id="path1338" />
    <path
       inkscape:connector-curvature="0"
       d="m 402.54,595.44 10,-5.17 12.43,-13.88 -14.84,-8.15 -7.59,27.2 z"
       style="opacity:0.48131002000000001;fill:none;stroke:#000000;stroke-opacity:1;stroke-width:0.99921263;stroke-miterlimit:4;stroke-dasharray:none"
       sodipodi:nodetypes="ccccc"
       id="path4588" />
  </g>
  <g
     style="fill:none;stroke:#000000;stroke-opacity:1;stroke-width:0.99921263;stroke-miterlimit:4;stroke-dasharray:none"
     transform="translate(-68.498,-351.43)"
     id="g6390">
    <path
       inkscape:connector-curvature="0"
       d="m 393.78,595.94 -7.15,-10.41 -14.32,-10.4 -0.89,20.81 h 22.36 z"
       style="fill:none;stroke:#000000;stroke-width:0.99921263;stroke-opacity:1;stroke-miterlimit:4;stroke-dasharray:none"
       sodipodi:nodetypes="ccccc"
       id="path2795" />
    <path
       inkscape:connector-curvature="0"
       d="m 393.78,595.94 -7.15,-10.41 -14.32,-10.4 -0.89,20.81 h 22.36 z"
       style="opacity:0.48131002000000001;fill:none;stroke:#000000;stroke-opacity:1;stroke-width:0.99921263;stroke-miterlimit:4;stroke-dasharray:none"
       sodipodi:nodetypes="ccccc"
       id="path4590" />
  </g>
  <metadata
     id="metadata3029">
    <rdf:RDF>
      <cc:Work>
        <dc:format>image/svg+xml</dc:format>
        <dc:type
           rdf:resource="http://purl.org/dc/dcmitype/StillImage" />
        <cc:license
           rdf:resource="http://creativecommons.org/licenses/publicdomain/" />
        <dc:publisher>
          <cc:Agent
             rdf:about="http://openclipart.org/">
            <dc:title>Openclipart</dc:title>
          </cc:Agent>
        </dc:publisher>
        <dc:title>bat</dc:title>
        <dc:date>2007-01-01T04:41:07</dc:date>
        <dc:description />
        <dc:source>https://openclipart.org/detail/2699/bat-by-machovka-2699</dc:source>
        <dc:creator>
          <cc:Agent>
            <dc:title>Machovka</dc:title>
          </cc:Agent>
        </dc:creator>
        <dc:subject>
          <rdf:Bag>
            <rdf:li>animal</rdf:li>
            <rdf:li>bat</rdf:li>
            <rdf:li>cartoon</rdf:li>
            <rdf:li>halloween</rdf:li>
            <rdf:li>spooky</rdf:li>
          </rdf:Bag>
        </dc:subject>
      </cc:Work>
      <cc:License
         rdf:about="http://creativecommons.org/licenses/publicdomain/">
        <cc:permits
           rdf:resource="http://creativecommons.org/ns#Reproduction" />
        <cc:permits
           rdf:resource="http://creativecommons.org/ns#Distribution" />
        <cc:permits
           rdf:resource="http://creativecommons.org/ns#DerivativeWorks" />
      </cc:License>
    </rdf:RDF>
  </metadata>
</svg>
