<?xml version="1.0" encoding="UTF-8" standalone="no"?>
<!-- Created with Inkscape (http://www.inkscape.org/) -->

<svg
   xmlns:dc="http://purl.org/dc/elements/1.1/"
   xmlns:cc="http://creativecommons.org/ns#"
   xmlns:rdf="http://www.w3.org/1999/02/22-rdf-syntax-ns#"
   xmlns:svg="http://www.w3.org/2000/svg"
   xmlns="http://www.w3.org/2000/svg"
   xmlns:sodipodi="http://sodipodi.sourceforge.net/DTD/sodipodi-0.dtd"
   xmlns:inkscape="http://www.inkscape.org/namespaces/inkscape"
   id="svg5105"
   viewBox="0 0 744.09 1052.4"
   version="1.1"
   inkscape:version="0.48.5 r10040"
   width="100%"
   height="100%"
   sodipodi:docname="cloud2.svg">
  <defs
     id="defs12" />
  <sodipodi:namedview
     pagecolor="#ffffff"
     bordercolor="#666666"
     borderopacity="1"
     objecttolerance="10"
     gridtolerance="10"
     guidetolerance="10"
     inkscape:pageopacity="0"
     inkscape:pageshadow="2"
     inkscape:window-width="1366"
     inkscape:window-height="705"
     id="namedview10"
     showgrid="false"
     inkscape:zoom="1"
     inkscape:cx="-323.60924"
     inkscape:cy="526.2"
     inkscape:window-x="-8"
     inkscape:window-y="-8"
     inkscape:window-maximized="1"
     inkscape:current-layer="svg5105" />
  <g
     id="g3775">
    <path
       inkscape:connector-curvature="0"
       d="m -355.47,328.041 c -30.735,0 -58.037,14.71 -75.25,37.469 -14.594,-9.2676 -31.901,-14.625 -50.469,-14.625 -46.876,0 -85.768,34.216 -93.062,79.031 -43.073,8.7073 -75.531,46.765 -75.531,92.406 0,52.073 42.24,94.281 94.312,94.281 21.236,0 40.832,-7.0284 56.594,-18.875 9.1676,2.9727 18.936,4.5938 29.094,4.5938 9.8334,0 19.338,-1.5196 28.25,-4.3125 16.72,15.104 38.881,24.312 63.188,24.312 24.68,0 47.163,-9.4792 63.969,-25 15.139,10.36 33.458,16.406 53.188,16.406 15.658,0 30.411,-3.809 43.406,-10.562 6.2741,1.3153 12.772,2 19.438,2 52.072,0 94.281,-42.209 94.281,-94.281 0,-52.073 -42.209,-94.281 -94.281,-94.281 -0.5112,0 -1.022,0.0231 -1.5313,0.0312 -16.788,-20.342 -41.934,-33.528 -70.188,-34.281 -15.041,-32.094 -47.62,-54.312 -85.406,-54.312 z"
       style="fill:none;stroke:#000000;stroke-opacity:1"
       id="path3962" />
    <path
       inkscape:connector-curvature="0"
       d="m -356.87,340.806 c -35.258,0 -65.632,21.442 -79.562,52.312 0.1075,0.0695 0.2052,0.14877 0.3125,0.21875 16.009,-21.79 41.405,-35.875 70,-35.875 28.683,0 54.152,14.184 70.156,36.094 -0.2189,0.039 -0.4381,0.0844 -0.6563,0.125 3.4635,4.8588 6.467,10.076 8.9687,15.594 5.4214,0.15107 10.733,0.80256 15.875,1.9062 0.1567,0.0322 0.3122,0.0606 0.4688,0.0937 12.648,2.7877 24.298,8.3256 34.344,16 -0.1341,0.0335 -0.2725,0.0598 -0.4063,0.0937 5.1962,3.7285 9.9347,7.9739 14.156,12.594 0.5101,-0.007 1.0191,-0.0312 1.5312,-0.0312 52.164,0 94.438,38.201 94.438,85.313 0,12.126 -2.7939,23.649 -7.8437,34.094 11.194,-14.02 17.812,-31.208 17.812,-49.813 0,-47.112 -42.273,-85.312 -94.437,-85.312 -0.4257,0 -0.857,0.0262 -1.2813,0.0312 -15.792,-18.911 -38.852,-31.105 -64.719,-31.969 -14.102,-30.408 -44.229,-51.469 -79.156,-51.469 z m -123.94,21.125 c -2.2098,-0.036 -4.4141,0.0385 -6.6562,0.1875 -34.258,2.277 -62.254,25.821 -73.063,57.594 13.681,-23.059 37.392,-39.05 65.313,-40.906 16.436,-1.0925 32.103,2.8613 45.594,10.594 3.2767,-5.24 7.1138,-10.086 11.375,-14.469 -12.492,-8.0316 -27.094,-12.748 -42.562,-13 z m 128.62,29.844 c -24.868,0.0657 -47.757,10.099 -64.156,26.531 1.8694,1.3418 3.7154,2.7172 5.4687,4.1875 17.623,-12.541 39.981,-18.892 63.5,-16.25 49.606,5.5732 85.433,49.041 80.031,97.125 -0.6719,5.9793 -1.9321,11.774 -3.75,17.281 5.0969,-9.4034 8.4577,-19.901 9.7187,-31.125 5.4022,-48.084 -30.425,-91.583 -80.031,-97.156 -3.6199,-0.4067 -7.2286,-0.60314 -10.781,-0.59375 z m -151.94,25.219 c -6.9318,0.005 -13.973,0.79948 -21.031,2.4375 -20.465,4.7496 -37.744,15.896 -50.062,30.719 0.8633,-4.6006 2.1185,-9.0522 3.6874,-13.375 -26.664,6.9561 -48.436,25.436 -59.312,49.594 12.852,-17.277 31.994,-29.865 54.219,-34.5 -12.477,15.784 -19.475,35.483 -19,56 5.4198,-34.771 32.128,-64.74 69.469,-73.406 22.698,-5.2676 45.308,-1.736 64.094,8.3125 4.4141,-2.5463 9.125,-4.739 14.031,-6.5625 -15.57,-12.217 -35.298,-19.233 -56.094,-19.219 z"
       style="fill:none;stroke:#000000;stroke-opacity:1"
       id="path3981" />
  </g>
  <metadata
     id="metadata8">
    <rdf:RDF>
      <cc:Work>
        <dc:format>image/svg+xml</dc:format>
        <dc:type
           rdf:resource="http://purl.org/dc/dcmitype/StillImage" />
        <cc:license
           rdf:resource="http://creativecommons.org/licenses/publicdomain/" />
        <dc:publisher>
          <cc:Agent
             rdf:about="http://openclipart.org/">
            <dc:title>Openclipart</dc:title>
          </cc:Agent>
        </dc:publisher>
        <dc:title>Simple Cloud Black &amp; White</dc:title>
        <dc:date>2012-01-20T07:33:02</dc:date>
        <dc:description />
        <dc:source>https://openclipart.org/detail/167268/simple-cloud-black--white-by-halattas</dc:source>
        <dc:creator>
          <cc:Agent>
            <dc:title>halattas</dc:title>
          </cc:Agent>
        </dc:creator>
        <dc:subject>
          <rdf:Bag>
            <rdf:li>Black &amp; White</rdf:li>
            <rdf:li>Cloud</rdf:li>
            <rdf:li>Simple Cloud</rdf:li>
          </rdf:Bag>
        </dc:subject>
      </cc:Work>
      <cc:License
         rdf:about="http://creativecommons.org/licenses/publicdomain/">
        <cc:permits
           rdf:resource="http://creativecommons.org/ns#Reproduction" />
        <cc:permits
           rdf:resource="http://creativecommons.org/ns#Distribution" />
        <cc:permits
           rdf:resource="http://creativecommons.org/ns#DerivativeWorks" />
      </cc:License>
    </rdf:RDF>
  </metadata>
</svg>
