<?xml version="1.0" encoding="UTF-8" standalone="no"?>
<!-- Created with Inkscape (http://www.inkscape.org/) -->

<svg
   xmlns:dc="http://purl.org/dc/elements/1.1/"
   xmlns:cc="http://creativecommons.org/ns#"
   xmlns:rdf="http://www.w3.org/1999/02/22-rdf-syntax-ns#"
   xmlns:svg="http://www.w3.org/2000/svg"
   xmlns="http://www.w3.org/2000/svg"
   xmlns:sodipodi="http://sodipodi.sourceforge.net/DTD/sodipodi-0.dtd"
   xmlns:inkscape="http://www.inkscape.org/namespaces/inkscape"
   width="210mm"
   height="297mm"
   viewBox="0 0 744.09448819 1052.3622047"
   id="svg2"
   version="1.1"
   inkscape:version="0.91 r13725"
   sodipodi:docname="marsupial mouse.svg">
  <defs
     id="defs4" />
  <sodipodi:namedview
     id="base"
     pagecolor="#ffffff"
     bordercolor="#666666"
     borderopacity="1.0"
     inkscape:pageopacity="0.0"
     inkscape:pageshadow="2"
     inkscape:zoom="0.87109466"
     inkscape:cx="-162.2018"
     inkscape:cy="513.54721"
     inkscape:document-units="px"
     inkscape:current-layer="layer1"
     showgrid="false"
     inkscape:window-width="1366"
     inkscape:window-height="705"
     inkscape:window-x="-8"
     inkscape:window-y="-8"
     inkscape:window-maximized="1" />
  <metadata
     id="metadata7">
    <rdf:RDF>
      <cc:Work
         rdf:about="">
        <dc:format>image/svg+xml</dc:format>
        <dc:type
           rdf:resource="http://purl.org/dc/dcmitype/StillImage" />
        <dc:title></dc:title>
      </cc:Work>
    </rdf:RDF>
  </metadata>
  <g
     inkscape:label="Layer 1"
     inkscape:groupmode="layer"
     id="layer1">
    <path
       style="fill:none;stroke:#000000;stroke-opacity:1"
       d="M -175.31641 286.26758 C -181.64145 286.26758 -182.24152 286.45563 -183.29492 288.76758 C -183.92141 290.14258 -185.17189 291.26758 -186.07227 291.26758 C -188.09892 291.26758 -196.97648 300.4468 -199.57617 305.23047 C -200.63283 307.17482 -201.90544 309.44258 -202.40234 310.26758 C -204.74688 314.16016 -208.46773 323.26061 -209.55859 327.76758 C -210.2242 330.51758 -211.35404 333.93288 -212.06836 335.35938 C -212.78268 336.78587 -213.67633 340.28836 -214.05469 343.14062 C -214.51012 346.5738 -215.7165 349.58386 -217.625 352.04688 C -219.21056 354.09312 -221.18429 356.66758 -222.00977 357.76758 C -224.92431 361.65138 -230.57024 368.79957 -232.75977 371.37695 C -233.97906 372.81223 -236.10156 375.45323 -237.47656 377.24609 C -238.85156 379.03895 -244.85632 386.41486 -250.82031 393.63672 C -260.70656 405.60808 -262.98149 408.58177 -268.13086 416.26758 C -274.61475 425.94479 -274.73855 426.23571 -274.62109 431.44922 C -274.5398 435.05765 -275.26412 438.3078 -276.99023 442.07812 C -278.35768 445.06505 -279.47656 448.14986 -279.47656 448.93359 C -279.47656 449.71732 -280.60156 452.47176 -281.97656 455.05469 C -283.35156 457.63762 -284.47656 460.33762 -284.47656 461.05469 C -284.47656 461.77176 -285.60156 464.47176 -286.97656 467.05469 C -288.35156 469.63762 -289.47847 472.42844 -289.48047 473.25781 C -289.48252 474.08719 -290.3575 476.19651 -291.42383 477.94531 C -292.49015 479.69411 -293.88089 483.06911 -294.51367 485.44531 C -295.14646 487.82151 -296.25389 490.44258 -296.97656 491.26758 C -297.69923 492.09258 -298.77173 494.56758 -299.35938 496.76758 C -299.94702 498.96758 -301.33961 502.54973 -302.45312 504.72852 C -303.56664 506.90731 -304.47656 509.45776 -304.47656 510.39648 C -304.47656 513.43255 -305.64715 515.26758 -307.58398 515.26758 C -309.21187 515.26758 -309.47656 516.03786 -309.47656 520.76758 C -309.47656 525.93784 -309.33075 526.26758 -307.02734 526.26758 C -305.67967 526.26758 -304.21717 526.87638 -303.77734 527.62109 C -301.3753 531.68817 -290.57042 532.71366 -280.47656 529.83398 C -268.20374 526.33266 -263.67634 525.89301 -239.97656 525.89258 C -214.1901 525.89211 -199.39545 526.97419 -181.97656 530.13672 C -168.47368 532.58827 -162.27671 535.24874 -157.01953 540.85156 C -154.79608 543.2212 -151.85156 545.64507 -150.47656 546.23828 C -144.03506 549.01733 -135.78924 556.34835 -134.80273 560.17188 C -133.28931 566.03766 -138.08908 567.30204 -152.44727 564.82422 C -157.41444 563.96703 -162.99673 563.26758 -164.85156 563.26758 C -168.93021 563.26758 -176.41415 566.43357 -178.94531 569.23047 C -179.95886 570.35043 -181.24081 571.26758 -181.79492 571.26758 C -184.03616 571.26758 -192.4813 577.60606 -194.26367 580.62695 L -195.28906 582.36523 L -196.9707 583.73242 L -202.41797 590.91602 L -194.60938 586.43359 L -189.92578 582.62695 C -185.33856 581.92059 -183.80742 583.03555 -185.06641 586.2207 L -190.2168 590.4043 L -195.66406 597.58789 L -187.85547 593.10547 L -182.62109 588.85352 C -181.65474 588.53944 -180.57931 588.08499 -179.66211 587.55859 C -177.16073 586.123 -176.42959 586.06131 -175.08203 587.17969 C -174.82639 587.39185 -174.58613 587.70862 -174.37109 588.08008 L -182.73438 594.87305 L -188.18164 602.05469 L -180.37305 597.57422 L -173.46484 591.96289 C -173.40903 594.76593 -172.87818 594.72821 -169.75 592.26758 C -168.35158 591.16758 -165.73561 590.26758 -163.93555 590.26758 C -162.13548 590.26758 -158.42524 589.10585 -155.69141 587.6875 C -149.69415 584.576 -143.11749 583.4891 -140.98633 585.25781 C -138.21247 587.55991 -139.25352 591.49304 -143.9668 596.51758 L -148.42188 601.26758 L -160.22852 601.26758 C -168.96498 601.26758 -172.57491 600.88631 -174.11914 599.80469 C -175.98007 598.50125 -176.62144 598.55532 -180.05273 600.30469 C -182.16878 601.38352 -184.40974 602.26758 -185.0332 602.26758 C -185.65667 602.26758 -186.98107 603.16758 -187.97656 604.26758 C -188.97205 605.36758 -190.31341 606.26758 -190.95703 606.26758 C -192.83474 606.26758 -202.06048 615.93439 -203.54102 619.26562 L -209.60742 624.14258 L -215.97656 632.45703 L -206.8457 627.26953 L -200.83594 622.4375 C -200.74253 622.39157 -200.66204 622.36473 -200.56445 622.3125 C -199.48924 621.73707 -197.62069 621.26758 -196.41211 621.26758 C -194.42573 621.26758 -194.26503 621.64995 -194.75 625.26562 C -194.80457 625.67248 -194.82879 626.00683 -194.85938 626.35742 L -201.70898 631.86523 L -208.07812 640.17773 L -198.94727 634.99219 L -191.91797 629.33984 C -191.41216 629.10362 -190.86077 628.81224 -190.20703 628.4082 C -185.96375 625.78572 -183.16879 627.03745 -183.95703 631.12891 L -192.95898 638.36523 L -199.32812 646.67773 L -190.19727 641.49219 L -182.03906 634.93359 C -181.16967 634.82633 -180.07341 634.34565 -178.79688 633.44922 C -177.24664 632.36059 -173.72656 631.19556 -170.97656 630.86133 C -168.22656 630.5271 -165.51241 629.62791 -164.94336 628.86328 C -162.60336 625.71901 -156.2661 624.12445 -148.85938 624.81445 C -142.81105 625.3779 -141.00754 625.15266 -136.85938 623.31836 C -134.17434 622.13105 -130.85156 620.14712 -129.47656 618.91016 C -124.56254 614.48949 -108.66505 605.26758 -105.95898 605.26758 C -105.27874 605.26758 -104.1866 604.61973 -103.53125 603.83008 C -102.8759 603.04043 -100.90771 602.08689 -99.158203 601.70898 C -97.408713 601.33107 -93.954995 599.95198 -91.484375 598.64453 C -89.013745 597.33709 -86.623405 596.26758 -86.171875 596.26758 C -84.831315 596.26758 -72.259052 590.02993 -68.476562 587.48828 C -66.551562 586.19477 -63.719691 583.70274 -62.181641 581.95117 C -60.643601 580.19961 -58.130586 577.41758 -56.597656 575.76758 C -55.064726 574.11758 -53.020538 570.62059 -52.054688 567.99805 C -49.769487 561.7931 -47.870173 559.93519 -44.570312 560.67578 C -43.144613 560.99575 -38.826563 561.512 -34.976562 561.82422 C -23.386402 562.76413 -23.148339 562.8667 -23.886719 566.55859 C -24.238339 568.31666 -25.640093 570.788 -27.001953 572.05078 C -28.363803 573.31356 -29.476562 574.95185 -29.476562 575.69141 C -29.476562 576.43097 -31.501562 579.49755 -33.976562 582.50391 C -36.068509 585.04497 -37.354017 586.7749 -37.941406 588.00586 L -44.527344 593.30078 L -50.896484 601.61523 L -41.765625 596.42773 L -35.669922 591.52539 C -34.3034 592.36374 -32.128409 593.95765 -30.123047 595.61523 C -29.20439 596.37457 -28.494705 596.94928 -27.857422 597.43945 L -30.888672 599.875 L -37.259766 608.18945 L -28.128906 603.00195 L -23.134766 598.98633 C -22.504461 598.8731 -21.791113 598.69647 -20.859375 598.44727 C -15.981384 597.14259 -14.321626 596.98867 -12.052734 598.26562 L -22.138672 606.375 L -28.509766 614.68945 L -19.378906 609.50195 L -8.4453125 600.71289 L -7.4355469 601.43164 L -3.0292969 598.84961 C -0.60526683 597.42903 2.6977369 596.26758 4.3105469 596.26758 C 5.9233569 596.26758 8.8342672 595.18712 10.779297 593.86719 C 12.724327 592.54725 15.366811 591.13395 16.650391 590.72656 C 17.933971 590.31917 20.118266 589.21983 21.503906 588.2832 C 22.889546 587.34657 26.048437 585.30633 28.523438 583.75 C 30.998437 582.19367 34.621608 579.87346 36.576172 578.59375 C 40.902432 575.76121 49.500364 575.32923 51.583984 577.83984 C 54.160754 580.94466 65.811161 585.4067 73.269531 586.14453 C 77.255411 586.53883 80.905669 587.29033 81.380859 587.81445 C 82.974299 589.57197 80.616134 595.28028 77.865234 596.32617 C 76.446864 596.86543 74.182964 598.17522 72.833984 599.23633 C 71.485004 600.29743 68.276915 601.44881 65.703125 601.79492 C 63.129335 602.14104 58.773438 603.03539 56.023438 603.7832 C 52.670017 604.69511 45.425052 605.12132 34.023438 605.07812 C 13.823048 605.00157 5.6952494 606.15529 1.2246094 609.73242 C -6.0751406 615.57322 -8.4237806 618.68774 -9.5253906 623.99414 C -10.123491 626.87519 -11.037734 629.4945 -11.558594 629.81641 C -12.462444 630.37502 -14.414739 633.92378 -15.568359 636.70703 L -18.761719 640.27148 L -24.878906 651.77344 L -14.630859 643.48828 L -13.808594 642.57031 C -13.646776 642.66634 -13.483239 642.76233 -13.314453 642.84961 C -10.727053 644.18761 -9.4794887 644.28484 -6.4492188 643.37695 C -2.4424033 642.17648 0.33641085 641.92809 2.15625 642.65625 L -2.6191406 647.98633 L -8.7363281 659.48828 L 1.5136719 651.20312 L 5.6660156 646.56836 C 6.1548752 646.999 6.6727042 647.26758 7.1074219 647.26758 C 8.0023119 647.26758 10.070978 646.14258 11.705078 644.76758 C 14.930426 642.05363 17.559248 641.59136 19.298828 643.34375 L 9.7265625 654.0293 L 3.609375 665.53125 L 13.859375 657.24609 L 22.318359 647.80273 C 23.295669 648.51638 24.323793 648.39906 25.035156 647.24805 C 25.896666 645.85411 35.087737 641.26758 37.019531 641.26758 C 37.879391 641.26758 41.156814 640.20086 44.302734 638.89844 C 48.984314 636.96026 52.48074 636.42462 63.5625 635.95117 C 76.09464 635.41577 77.565903 635.14205 83.351562 632.27148 C 87.047632 630.43767 92.34499 626.48104 96.3125 622.58789 C 107.1949 611.90944 112.66437 607.61493 118.89648 604.86133 C 122.12742 603.43377 125.27742 602.26472 125.89648 602.26172 C 130.27177 602.24004 134.26623 600.02673 135.82227 596.76367 C 138.17578 591.82831 142.80682 589.27453 149.4082 589.26953 C 154.57576 589.26594 162.18213 588.2701 173.16016 586.16016 C 175.98553 585.61713 179.08425 584.30393 180.04688 583.24023 C 181.00951 582.17653 183.39801 581.00552 185.35352 580.63867 C 187.30902 580.27181 190.28335 579.18703 191.96484 578.22852 C 193.64633 577.27002 196.70398 575.95356 198.75977 575.30273 C 200.82182 574.64991 203.78328 572.5598 205.36523 570.64062 C 207.38752 568.18723 209.67702 566.78002 213.12891 565.86523 C 215.82097 565.15181 220.40188 563.35864 223.31055 561.88086 C 228.40583 559.29216 228.57686 559.07293 227.97656 555.87305 C 227.39359 552.76552 227.59966 552.44214 231.1875 550.85742 C 233.29651 549.92589 236.94388 548.02331 239.29297 546.62891 L 243.56445 544.09375 L 258.29297 545.28711 C 268.81791 546.14067 274.06756 547.01458 276.68164 548.34766 C 278.69367 549.37372 282.29367 550.5151 284.68164 550.88281 C 287.06962 551.25053 291.15219 552.37715 293.75391 553.38672 C 296.35562 554.3963 301.53062 555.69009 305.25391 556.26172 C 308.97719 556.83336 315.27191 558.04637 319.24414 558.95898 C 324.90614 560.25981 327.23531 560.3838 330.01953 559.5293 C 333.9518 558.32245 346.20948 560.00995 354.52344 562.90234 C 356.99844 563.76338 361.27344 564.91458 364.02344 565.46094 C 366.77344 566.0073 371.27344 567.30565 374.02344 568.3457 C 376.77344 569.38576 381.38432 570.68056 384.27148 571.22461 C 387.15863 571.76866 390.76903 572.85842 392.29297 573.64648 C 393.81691 574.43454 397.63087 575.55456 400.76953 576.13477 C 403.9082 576.71498 407.49976 577.84106 408.75 578.63672 C 410.00024 579.43238 413.59603 580.60272 416.74023 581.23828 C 419.88442 581.87384 424.83442 583.18772 427.74023 584.1582 C 432.36968 585.70435 437.788 585.95125 471.52344 586.14648 C 494.74453 586.28086 512.10815 585.96273 515.27734 585.34375 C 518.3267 584.74817 523.04745 582.68111 526.52734 580.41992 C 530.5886 577.78097 534.18778 576.30306 537.67969 575.83984 C 540.5153 575.46368 544.02084 574.54272 545.4707 573.79297 C 546.92055 573.04322 550.98476 571.90732 554.50195 571.26953 C 558.01915 570.63174 562.5015 569.29439 564.46094 568.29688 C 566.42038 567.29937 571.17344 564.99515 575.02344 563.17578 C 578.87344 561.35642 583.29491 558.83165 584.84961 557.56641 C 586.4043 556.30117 588.3168 555.26758 589.09961 555.26758 C 590.0415 555.26758 590.52344 554.15613 590.52344 551.98438 C 590.52344 548.96562 590.16743 548.59908 586.08789 547.39453 C 583.64871 546.67433 580.01036 545.20431 578.00391 544.12891 C 575.98929 543.04914 570.47574 541.69996 565.68945 541.11523 C 560.92257 540.53286 555.89201 539.47169 554.50977 538.75781 C 553.12752 538.04392 549.83105 537.13529 547.18359 536.73828 C 543.33262 536.16079 541.52623 535.16248 538.15625 531.74414 C 533.40611 526.92583 537.15016 527.6536 502.33398 524.77148 C 490.10062 523.75879 472.33106 523.24922 450.89453 523.29492 C 418.22918 523.36462 418.13794 523.35944 415.08398 521.06641 C 412.1804 518.8863 411.02879 518.74822 392.77148 518.42383 C 377.77131 518.15732 371.41537 518.46101 363.99609 519.79688 C 356.05644 521.22645 350.44715 521.42326 330.24805 520.97852 C 315.92815 520.66322 302.54784 519.84256 297.52344 518.9707 C 292.84844 518.15947 284.98567 517.17061 280.05273 516.77344 C 268.7681 515.86488 266.52344 515.04951 266.52344 511.86328 C 266.52344 509.03276 264.14047 506.26662 261.70117 506.26562 C 257.84707 506.26381 247.92266 500.38927 244.27344 495.94922 C 242.21094 493.43976 240.52344 490.99543 240.52344 490.51953 C 240.52344 490.04364 239.44285 488.19122 238.12305 486.40234 C 236.80325 484.61345 235.42709 481.56777 235.06445 479.63477 C 234.70182 477.70176 233.53231 474.69082 232.4668 472.94336 C 231.40129 471.1959 230.52739 468.86219 230.52539 467.75781 C 230.52333 466.65344 229.39844 463.63762 228.02344 461.05469 C 226.64844 458.47176 225.52344 455.72921 225.52344 454.96094 C 225.52344 454.19266 224.39844 451.4493 223.02344 448.86328 C 221.64844 446.27727 220.52344 443.70594 220.52344 443.15039 C 220.52344 442.59483 219.14183 439.13097 217.45312 435.45312 C 215.76441 431.77528 213.58119 426.96758 212.60352 424.76758 C 211.05059 421.27313 209.2039 417.25018 204.56836 407.26758 C 203.92986 405.89258 202.19571 402.67654 200.71484 400.12109 C 199.23398 397.56563 196.77325 393.29063 195.24609 390.62109 C 193.71893 387.95154 191.69393 384.60055 190.74609 383.17578 C 189.79825 381.75101 187.84589 378.82041 186.4082 376.66211 C 184.9705 374.5038 183.058 372.12569 182.1582 371.37891 C 181.25839 370.63215 180.52344 369.55088 180.52344 368.97656 C 180.52344 368.40224 179.4581 366.77045 178.15625 365.34961 C 172.7753 359.4769 153.60829 340.64162 151.40234 339.05859 C 150.09358 338.1194 147.67344 336.27015 146.02344 334.94922 C 144.37344 333.6283 141.52365 331.69808 139.69141 330.6582 C 134.13228 327.50314 131.18814 325.76237 127.52344 323.4668 C 125.59844 322.26099 123.33621 321.27153 122.49609 321.26953 C 121.65596 321.26747 119.85957 320.48008 118.50586 319.51758 C 115.48089 317.3668 104.75871 313.48732 98.023438 312.10742 C 95.273438 311.54402 89.648438 310.11069 85.523438 308.92383 C 78.591297 306.9293 75.789857 306.76886 48.523438 306.78516 C 20.844824 306.80173 18.652987 306.93549 13.023438 308.96094 C 9.7234378 310.14824 5.4484375 311.42154 3.5234375 311.79102 C 1.5984375 312.16049 -0.94831557 313.07593 -2.1347656 313.82617 C -3.3212056 314.5764 -6.3440856 315.70796 -8.8535156 316.33984 C -11.362936 316.97172 -13.916251 318.09026 -14.525391 318.82422 C -15.134521 319.55818 -18.184687 320.66157 -21.304688 321.27734 C -30.242498 323.04133 -43.716521 327.38914 -45.925781 329.22266 C -46.565231 329.75336 -50.279027 330.68385 -54.179688 331.28906 C -69.475988 333.66236 -101.35546 328.3768 -103 323.19531 C -103.34605 322.105 -104.60695 320.59017 -105.80273 319.82812 C -108.36984 318.19219 -120.1518 316.26877 -127.66797 316.25977 C -131.26016 316.25531 -133.9432 315.61643 -135.96289 314.28516 C -137.60444 313.20313 -140.97944 312.02873 -143.46289 311.67383 C -148.68837 310.92708 -151.30011 308.83158 -156.2207 301.44531 C -158.17023 298.51888 -161.72541 294.48692 -164.12109 292.48438 C -166.51676 290.48184 -168.47656 288.26322 -168.47656 287.55469 C -168.47656 286.62927 -170.40322 286.26758 -175.31641 286.26758 z "
       id="path4160" />
    <circle
       style="opacity:1;fill:none;fill-opacity:1;stroke:#000000;stroke-width:0.9992126;stroke-linecap:square;stroke-linejoin:miter;stroke-miterlimit:4;stroke-dasharray:none;stroke-dashoffset:0;stroke-opacity:1"
       id="path4256"
       cx="-215.62788"
       cy="434.55603"
       r="8.2283468" />
  </g>
</svg>
