<?xml version="1.0" encoding="UTF-8" standalone="no"?>
<svg
   xmlns:dc="http://purl.org/dc/elements/1.1/"
   xmlns:cc="http://creativecommons.org/ns#"
   xmlns:rdf="http://www.w3.org/1999/02/22-rdf-syntax-ns#"
   xmlns:svg="http://www.w3.org/2000/svg"
   xmlns="http://www.w3.org/2000/svg"
   xmlns:sodipodi="http://sodipodi.sourceforge.net/DTD/sodipodi-0.dtd"
   xmlns:inkscape="http://www.inkscape.org/namespaces/inkscape"
   version="1.1"
   x="0px"
   y="0px"
   viewBox="0 0 100 125"
   enable-background="new 0 0 100 100"
   xml:space="preserve"
   id="svg2"
   inkscape:version="0.48.5 r10040"
   sodipodi:docname="noun_29002_cc_tree.svg"
   width="100%"
   height="100%"><metadata
     id="metadata18"><rdf:RDF><cc:Work
         rdf:about=""><dc:format>image/svg+xml</dc:format><dc:type
           rdf:resource="http://purl.org/dc/dcmitype/StillImage" /><dc:title /></cc:Work></rdf:RDF></metadata><defs
     id="defs16" /><sodipodi:namedview
     pagecolor="#ffffff"
     bordercolor="#666666"
     borderopacity="1"
     objecttolerance="10"
     gridtolerance="10"
     guidetolerance="10"
     inkscape:pageopacity="0"
     inkscape:pageshadow="2"
     inkscape:window-width="1366"
     inkscape:window-height="705"
     id="namedview14"
     showgrid="false"
     inkscape:zoom="1"
     inkscape:cx="50"
     inkscape:cy="574.76751"
     inkscape:window-x="-8"
     inkscape:window-y="-8"
     inkscape:window-maximized="1"
     inkscape:current-layer="svg2" /><path
     style="fill:none;stroke:#000000;stroke-width:0.99999994;stroke-opacity:1"
     d="M -63.15625 -830.4375 C -164.57619 -829.02768 -174.3125 -731.84375 -174.3125 -731.84375 C -345.23309 -744.58592 -269.1875 -570.6875 -269.1875 -570.6875 C -362.96133 -410.83114 -223.1875 -416.375 -223.1875 -416.375 C -204.19081 -290.55718 -58.90625 -364.59375 -58.90625 -364.59375 C -53.317153 -362.4412 -47.778782 -360.48501 -42.3125 -358.6875 C -31.189183 -337.99654 -7.8740665 -311.85479 3.71875 -302.34375 C 18.241513 -290.43081 49.196461 -259.51136 67.125 -236.96875 C 85.053539 -214.39406 86.925056 -198.01307 89.28125 -181.03125 C 91.63745 -164.04943 80.736648 -102.1873 80.84375 -91.34375 C 80.950799 -80.51089 64.715893 8.703286 57.59375 22.5625 C 50.482301 36.400326 20.625 50 20.625 50 C 20.625 50 43.103346 57.375 67.09375 57.375 C 91.084156 57.375 148.80221 45.75 163.25 45.75 C 177.7085 45.75 185.18854 49.935837 203.40625 50 C 221.62396 50.05346 225.59375 45.75 225.59375 45.75 C 175.35313 27.538394 174.875 21.5 174.875 21.5 C 158.39231 -7.405444 151.65736 -84.90044 161.125 -183.1875 C 168.16886 -256.21389 210.24978 -308.04355 231.40625 -329.875 C 328.81982 -285.18516 375.375 -366.5625 375.375 -366.5625 C 530.53112 -358.70136 455.5625 -540.40625 455.5625 -540.40625 C 499.93107 -746.79579 317.6875 -728.90625 317.6875 -728.90625 C 245.31964 -851.29843 51.625 -802.1875 51.625 -802.1875 C 4.1199618 -823.05975 -33.447379 -830.85048 -63.15625 -830.4375 z M 174.875 -366.5625 C 178.23824 -363.77271 181.53662 -361.17523 184.8125 -358.65625 C 180.48628 -343.26105 172.75 -330.84375 172.75 -330.84375 C 172.99245 -338.21148 165.67027 -361.51023 165.4375 -362.25 C 171.5636 -364.80368 174.875 -366.5625 174.875 -366.5625 z M 142.6875 -354.25 C 144.27733 -348.75722 146.44549 -339.34506 146.34375 -328.71875 C 146.1831 -311.96151 124.15625 -244.3125 124.15625 -244.3125 C 94.52452 -296.09233 98.338659 -341.11796 98.71875 -344.875 C 116.01912 -347.18253 130.84232 -350.71084 142.6875 -354.25 z M -19.4375 -352.0625 C -7.4591041 -349.03489 4.1505211 -346.8112 15.34375 -345.25 L 21.6875 -321.34375 C -2.1560794 -330.38224 -13.775717 -342.58665 -19.4375 -352.0625 z "
     id="path4180" /></svg>