<?xml version="1.0" encoding="utf-8"?><!DOCTYPE svg  PUBLIC '-//W3C//DTD SVG 1.1//EN'  'http://www.w3.org/Graphics/SVG/1.1/DTD/svg11.dtd'><svg enable_background="new 0 0 1000 676" height="676px" pretty_print="False" style="stroke-linejoin: round; stroke:#000; fill: none;" version="1.1" viewBox="0 0 1000 676" width="1000px" xmlns="http://www.w3.org/2000/svg" xmlns:xlink="http://www.w3.org/1999/xlink"><defs><style type="text/css"><![CDATA[path { fill-rule: evenodd; }]]></style></defs><metadata><views><view h="676.124161775" padding="0" w="1000"><proj id="laea" lat0="53.39375" lon0="-2.96167"/><bbox h="0.13" w="0.19" x="999.9" y="999.94"/></view></views></metadata><g class="roads" id="roads" stroke="black" stroke-width="3px"><path d="M46.600473,558.806273L41.542618,561.110136L27.533223,566.012474L4.136034,571.920960L0.000000,573.124839 "/><path d="M64.077056,0.000000L117.216658,17.814455L127.302373,20.929450L129.262105,21.533178 "/><path d="M3.961159,101.189388L0.000000,101.188663 "/><path d="M3.856421,87.739897L3.961159,101.189388L4.058429,113.611711 "/><path d="M4.136034,571.920960L7.270904,575.799084L9.735561,580.935364L11.480296,586.989544L12.723716,591.811033 "/><path d="M46.600473,558.806273L45.288358,552.399099L35.841228,520.311370L14.334441,447.211835 "/><path d="M15.155273,0.000000L16.629529,3.713477L29.021151,18.744384L30.088872,20.041366L32.373558,22.885728L38.217587,28.606760L43.556455,33.839791L52.423858,43.368235 "/><path d="M23.814948,65.254903L20.492378,65.363458L15.254787,71.724552L20.387117,76.244994L23.958490,76.245619 "/><path d="M18.536399,108.587601L18.138039,88.358753L21.020828,85.996775L24.086956,85.894594 "/><path d="M24.486006,124.400600L21.197825,124.457804L18.326436,127.063736L18.527063,161.563755L27.763913,161.642405 "/><path d="M19.546073,178.935903L21.671164,175.732797L22.548693,170.455879L22.300863,164.806415 "/><path d="M20.533340,290.011386L34.632946,286.649851L48.292266,283.390887L50.278561,286.453457L54.175289,288.360775L51.855044,290.767819L51.023821,293.913383L37.946257,297.609005L25.255319,301.201915 "/><path d="M21.884328,182.608436L33.406484,183.117592L42.019844,180.814343 "/><path d="M27.567471,124.401135L30.729323,124.395260L29.942874,45.444474L34.253673,41.336543L34.162312,38.364162L31.379970,35.693051L27.387576,35.795080L23.486305,40.159863L23.814948,65.254903L23.958490,76.245619L24.086956,85.894594L24.483610,116.176841L24.486006,124.400600 "/><path d="M24.411208,620.162911L26.144468,626.486711 "/><path d="M24.486006,124.400600L27.567471,124.401135L27.748934,159.716464L27.763913,161.642405 "/><path d="M52.423858,43.368235L62.608930,47.645469L72.790258,51.588835L77.061172,57.502131L81.419618,66.850026L83.937718,95.989864L83.951611,130.438491L83.618755,154.422798L80.988400,158.036741L77.045201,160.668250L44.518831,161.979079L27.763913,161.642405 "/><path d="M37.399837,201.234935L33.406484,183.117592 "/><path d="M37.946257,297.609005L34.632946,286.649851 "/><path d="M75.651294,509.179496L35.841228,520.311370 "/><path d="M40.332689,174.952786L42.019844,180.814343L49.119823,209.672506 "/><path d="M43.663515,11.627315L45.757196,12.211865L48.547496,12.995543L50.468937,13.535123 "/><path d="M80.998121,674.124162L80.013870,670.689397L59.583605,602.360292L47.855096,565.637144L46.600473,558.806273 "/><path d="M140.639990,531.927733L101.798423,543.362425L77.471133,550.112397L57.891362,555.103901L46.600473,558.806273 "/><path d="M87.334590,339.140151L87.335020,336.296181L76.895113,314.139869L76.412996,312.637562L76.570454,309.389169 "/><path d="M191.209651,639.715869L184.934538,639.644535L165.637554,645.355860L149.411203,649.956820L140.873013,652.375975L109.986076,661.128343L106.681756,662.437507L80.013870,670.689397 "/><path d="M97.109139,123.757456L100.604081,123.315003 "/><path d="M104.552586,109.949562L97.141816,109.832923 "/><path d="M103.188713,91.479611L105.468408,103.318045L107.347499,106.078828L116.297036,106.413929L115.634114,111.382758L109.888470,111.272807L108.226121,118.565457 "/><path d="M105.468408,103.318045L104.583673,106.739669L104.552586,109.949562L104.470953,118.564916 "/><path d="M130.798987,0.000000L127.302373,20.929450 "/><path d="M129.262105,21.533178L131.933772,22.355273 "/><path d="M131.933772,22.355273L183.109610,34.052136L233.769093,46.158858 "/><path d="M132.915783,149.139954L136.919903,148.434312L165.335507,141.851230L174.312289,139.464151L202.976559,132.566137L248.273370,121.047152 "/><path d="M137.524532,438.390895L152.834665,433.854087 "/><path d="M140.873013,652.375975L145.874812,669.665138L154.206283,667.419276L149.411203,649.956820 "/><path d="M151.133239,626.653182L160.578700,624.394603L162.428006,623.675815L163.453726,626.487812 "/><path d="M152.751701,514.319799L155.569233,515.982883L156.564121,520.040319 "/><path d="M155.569233,515.982883L170.404975,512.004439 "/><path d="M159.821333,526.531140L163.238658,538.690657L184.177397,532.241262 "/><path d="M168.875872,556.409982L165.753264,544.488041L190.187524,537.384207 "/><path d="M166.749134,164.051057L196.416555,157.596200 "/><path d="M169.325653,509.519847L170.404975,512.004439L175.273553,522.180398 "/><path d="M172.134046,555.479505L175.578248,567.760985L179.512330,581.775864 "/><path d="M175.578248,567.760985L225.542000,553.129326 "/><path d="M218.385339,193.144962L214.413505,177.531606L212.940339,171.760056L208.662461,154.920478L202.976559,132.566137L187.140196,68.051840L184.186489,56.149199L183.109610,34.052136 "/><path d="M212.940339,171.760056L196.127336,176.682221L191.391992,177.862933 M191.391992,177.862933L187.916085,178.735630L184.424609,181.816731L184.833731,185.919028L187.091870,189.206223L192.225144,189.823106L195.716553,187.358296L197.152483,183.461639L194.691522,179.558129L191.391992,177.862933 Z "/><path d="M208.585774,335.579946L191.982389,339.763832 "/><path d="M192.787906,529.905438L210.483640,524.938448L222.493884,521.575721 "/><path d="M194.451800,577.489152L198.351370,593.006232L202.327959,604.831932 "/><path d="M198.351370,593.006232L240.489672,581.005540 "/><path d="M243.203240,671.756031L238.055416,674.124162 M216.230028,674.124162L207.728478,655.651619L211.323743,654.111250 "/><path d="M208.662461,154.920478L235.378314,148.760192 "/><path d="M210.483640,524.938448L211.933980,531.095186L224.296456,527.860884 "/><path d="M217.279713,223.703077L231.462953,220.321275L234.305927,233.276701 "/><path d="M233.769093,46.158858L318.465652,62.651834L377.502764,48.172060L405.507183,41.271892 "/><path d="M247.176142,230.241359L247.853448,233.053292L249.502803,238.927557L236.379886,242.078442L234.895181,236.030851L234.305927,233.276701 "/><path d="M238.279532,72.602433L246.865414,72.051140L267.956460,75.744395L308.075412,84.542628L320.715151,81.834333 "/><path d="M253.435860,220.836930L240.481476,223.910812L238.373078,214.980675L251.128363,211.919624 "/><path d="M246.873413,605.549018L318.698978,584.472118L323.177283,601.472031 "/><path d="M248.273370,121.047152L325.337895,102.089089L386.768259,86.973706L414.371125,80.182566L456.320635,69.860527L484.076268,63.030167 "/><path d="M251.128363,211.919624L253.435860,220.836930L254.281561,224.123942L255.368353,228.296907 "/><path d="M268.010587,0.000000L264.887085,24.854411 "/><path d="M267.956460,75.744395L273.351737,99.536611 "/><path d="M397.866302,672.170635L396.380103,674.124162 "/><path d="M286.217208,491.016801L300.970137,515.740550L302.409444,518.398450L313.839946,537.100118L316.439132,542.383785L327.119622,558.228538L332.777572,567.922782L339.997454,580.242803L348.327586,594.315470L354.123519,603.951899L368.001034,626.319174L374.643155,637.566969L385.029476,655.131987L397.866302,672.170635 "/><path d="M289.625584,29.497940L292.634566,0.000000 "/><path d="M340.118821,665.273006L327.939878,674.124162 "/><path d="M302.162005,393.154634L298.273870,374.183853 "/><path d="M329.787737,379.604305L308.222803,384.225130L305.830967,372.502414 "/><path d="M315.105976,498.221920L315.121250,498.818962L310.802700,499.967810L306.783886,485.266196 "/><path d="M308.705243,219.088754L311.794757,214.922521L350.025814,205.962852L395.311740,194.396491L413.448966,189.922528L458.171635,178.894369 "/><path d="M318.600498,510.792114L315.121250,498.818962L382.364637,479.563296 "/><path d="M320.715151,81.834333L382.026417,66.853865 "/><path d="M331.167970,532.177260L327.929820,520.409572L388.672887,503.117792 "/><path d="M343.884951,553.568776L340.838155,541.621360L395.122903,526.550302 "/><path d="M358.034013,574.767713L354.853133,562.833146L401.615153,549.745266 "/><path d="M368.458651,584.507065L363.481478,585.655965L360.534086,574.010306 "/><path d="M372.144869,598.958201L368.458651,584.507065L408.176403,573.607875 "/><path d="M369.769711,227.643516L393.242621,245.478726 "/><path d="M371.884780,430.226694L376.605165,429.174065L380.647926,428.224114 "/><path d="M377.502764,48.172060L382.026417,66.853865L386.768259,86.973706 "/><path d="M377.833666,9.910091L380.137590,18.544819L381.940172,25.311362 "/><path d="M422.616193,624.684218L412.290345,627.624173L411.516997,626.661179L405.004469,628.477762L391.144738,632.341962L389.330111,628.939398L388.246722,626.275138L386.949041,621.023692L385.425523,614.674450L384.070411,609.724730L382.833836,608.376521L379.442216,596.910618 "/><path d="M381.703728,270.252243L380.616789,264.660554L381.753924,260.301562L393.242621,245.478726L396.619149,241.126235L404.478357,235.945745 "/><path d="M384.070411,609.724730L415.725437,600.802374 "/><path d="M386.191052,159.684290L395.311740,194.396491 "/><path d="M390.572021,401.787811L387.406636,386.861657 "/><path d="M398.006119,208.751256L395.441783,197.253305L395.311740,194.396491 "/><path d="M395.537351,0.473726L405.507183,41.271892L409.590833,59.452892L414.371125,80.182566 "/><path d="M398.462092,0.000000L395.537351,0.473726 "/><path d="M397.866302,672.170635L400.096318,674.124162 "/><path d="M397.866302,672.170635L410.673711,657.001106L414.789701,650.960210L426.364064,637.145146L430.583336,632.112136L445.549761,614.060009L457.407138,599.512962L477.235511,575.586620L496.768741,552.372731L526.711124,515.426678L531.064034,511.728829L546.002346,494.183316L567.961546,468.400958L586.027028,446.720799L598.549188,435.691166 "/><path d="M405.004469,628.477762L407.458340,636.438393L399.689744,645.098424L400.616172,647.923168L410.673711,657.001106 "/><path d="M404.478357,235.945745L411.448353,263.891352L415.279789,279.818987L413.978145,282.418963L411.026542,286.013954 "/><path d="M404.478357,235.945745L410.721997,233.801745L426.949250,229.719237L469.681931,219.204419L500.302415,214.665792L532.178357,207.385554 "/><path d="M405.507183,41.271892L446.181452,32.381578L486.132005,24.017079 "/><path d="M413.448966,189.922528L414.846113,192.220859L416.694975,194.275250L423.983404,197.562398L455.196806,208.547359L466.286526,213.888789L468.851283,216.045871L469.681931,219.204419 "/><path d="M414.371125,80.182566L425.493945,113.020148L426.795326,116.788604L432.972966,140.574106 "/><path d="M431.629987,115.626746L444.403731,112.603312L455.696049,109.926463L504.895845,98.268469 "/><path d="M455.696049,109.926463L452.469386,95.822118L441.157986,98.409075L444.403731,112.603312 "/><path d="M550.439412,282.586767L480.901368,297.294918L455.153098,305.999860L451.045416,309.697592 "/><path d="M530.066438,674.124162L534.163248,671.645907L539.190211,665.758887L555.136239,647.905159L570.607285,629.043443L577.636383,620.736037L586.625603,610.143103L603.876450,590.016442L612.712333,579.577504L621.594114,569.664958L642.622960,545.345755L651.163789,535.484489L668.578257,514.452219 "/><path d="M554.444134,307.707351L480.797811,325.259548L476.311130,330.498066 "/><path d="M500.302415,214.665792L498.648708,208.342293 "/><path d="M561.251186,333.476267L508.678568,346.316532L504.704885,349.975825 "/><path d="M512.345016,128.402967L532.178357,207.385554L541.530835,248.170391L549.076504,277.335398L550.439412,282.586767L555.366662,304.767066L554.444134,307.707351L562.219680,331.691542L561.251186,333.476267L564.509145,340.313275L571.389202,369.657991L573.441321,376.231807L581.657771,409.909823L579.602246,419.359823 "/><path d="M611.909776,53.879713L610.987480,58.932130L610.065188,64.170720L609.077714,66.790037L607.236628,69.268151L603.554385,72.670785L595.481580,75.431591L568.365347,82.160350L555.691411,85.344857L547.974462,85.345003L542.948467,83.643841L539.476579,81.660176L536.360683,79.471069L532.800718,73.597001L532.326057,72.813791L529.141204,63.819693L528.008110,58.157445L525.458658,44.348489L526.094047,41.729207L533.741814,28.915210L537.282427,23.323522L538.132157,20.916087L536.643094,16.171878L532.473297,0.000000 "/><path d="M636.557746,68.239675L619.355672,72.419768L620.626728,77.305177L615.600846,79.006640L591.883724,84.669801L568.801935,90.615210L560.445764,92.669743L555.844692,93.517254L550.960342,93.665004L545.222367,93.164361L540.552360,92.175786L537.294824,90.262733L532.973134,87.149188L529.788325,83.965006L527.663834,80.562536L527.878167,77.943257L528.938464,76.530891L532.800718,73.597001 "/><path d="M534.163248,671.645907L527.976045,665.046427 "/><path d="M720.566696,158.361699L705.691594,162.696221L667.320698,172.058903L660.319550,175.725026L658.340516,176.238725L627.464413,184.271505L597.334564,191.578472L565.814993,199.225390L532.178357,207.385554 "/><path d="M571.284886,333.116515L591.099478,328.179104L623.956474,319.960472L658.459362,311.336903L755.041962,289.033644 "/><path d="M597.579843,0.000000L597.790918,0.660147L597.802447,1.944106L597.052298,4.390075L596.554719,5.160468L594.223692,7.067228L591.574915,7.683619L589.427540,7.330601L587.750961,6.451144L586.124115,4.685752L585.178567,1.578600L585.433637,0.000000 "/><path d="M596.554719,5.160468L599.215098,7.920885L606.462216,38.722792L609.077005,49.020042L611.909776,53.879713 "/><path d="M607.754488,0.203967L597.802447,1.944106 "/><path d="M607.704193,0.000000L607.754488,0.203967L616.628709,36.212237L618.542936,43.967268 "/><path d="M606.462216,38.722792L616.628709,36.212237 "/><path d="M611.909776,53.879713L616.793987,52.203942L633.919373,47.837695L674.355638,38.398313 "/><path d="M618.647156,63.990607L634.555390,60.073794L637.054923,59.463789L676.136300,49.902473L678.180905,58.472768L680.171919,66.824792L621.618322,81.413802L620.626728,77.305177 "/><path d="M622.599763,29.830699L635.403516,26.799950 "/><path d="M629.186049,0.000000L630.146908,4.125487L631.789052,5.049859 "/><path d="M635.403516,26.799950L633.267180,17.773822L631.276343,9.363986L631.172860,6.590639L631.789052,5.049859L633.741149,4.022597L647.983972,0.542333L650.342992,0.000000 "/><path d="M633.267180,17.773822L660.742438,11.314029L662.487916,11.724793L664.026763,13.265452L665.259503,16.648610L665.049116,18.946910L663.104692,20.243825L635.403516,26.799950 "/><path d="M633.919373,47.837695L637.054923,59.463789 "/><path d="M634.555390,60.073794L636.557746,68.239675 "/><path d="M678.180905,58.472768L636.557746,68.239675 "/><path d="M639.150040,235.353251L644.551375,234.210247 "/><path d="M640.693612,0.000000L640.718914,0.125430 "/><path d="M647.983972,0.542333L647.855502,0.000000 "/><path d="M668.225116,0.000000L678.822181,31.021679 "/><path d="M680.468104,30.713421L682.806888,30.918699L684.931371,31.913624L686.588912,33.576238L687.645545,35.996429L687.745228,38.339648L687.037241,40.573785L685.601947,42.435624L683.657512,43.681196L681.368526,44.194932L679.041208,43.899775L676.954991,42.821385L675.362519,41.100983L674.355638,38.398313L674.435871,36.048663L675.312294,33.872296L676.877743,32.126011L678.822181,31.021679L680.468104,30.713421 Z "/><path d="M678.589330,392.244349L773.463286,368.823505 "/><path d="M694.829949,31.181079L702.868093,28.696033L698.082264,13.340233L693.929660,0.000000 "/><path d="M681.071116,3.910733L693.526345,0.000000 "/><path d="M682.917013,17.770949L698.082264,13.340233 "/><path d="M683.657512,43.681196L697.302557,82.314576 "/><path d="M687.645545,35.996429L694.829949,31.181079 "/><path d="M697.302557,82.314576L712.065909,123.188310L720.566696,158.361699 "/><path d="M744.042920,108.606285L729.669940,117.229317L712.065909,123.188310 "/><path d="M776.106776,426.492266L775.148999,419.591082L775.286645,417.870563L774.489406,408.420703L773.504578,398.893825L774.460710,389.527247L774.287349,378.684229L773.463286,368.823505L768.522384,343.786791L766.132731,335.075362L755.041962,289.033644L736.086904,222.141074L729.320417,194.324675L720.566696,158.361699 "/><path d="M956.934572,86.013391L946.837185,88.993846L925.543797,95.282226L846.903529,120.696476L836.025066,124.209464L819.397271,129.584827L791.925250,138.139069L788.174006,139.307870L757.264401,148.927810L754.382045,149.826851L720.566696,158.361699 "/><path d="M742.026198,547.258277L744.728000,534.765114L755.771123,512.917537L766.286179,495.499627L772.827647,482.357659L776.348810,472.740451L778.813416,464.118415L780.045144,454.257482L780.044261,445.635696L776.106776,426.492266 "/><path d="M807.270946,168.111413L762.756529,178.683041L754.382045,149.826851 "/><path d="M777.780657,397.692892L813.080172,387.757651 "/><path d="M788.174006,139.307870L778.351949,105.694837 "/><path d="M798.726456,163.843197L791.925250,138.139069 "/><path d="M854.116077,185.805121L833.809313,191.816606L808.345916,195.928268L804.238922,200.030978L803.420275,204.961472L810.183892,234.337699L813.849174,250.251954 "/><path d="M819.397271,129.584827L808.246579,95.830821 "/><path d="M810.183892,234.337699L836.278842,226.727153L862.760308,219.334581 "/><path d="M818.779117,507.389889L813.519725,481.762672L815.819686,473.872478L872.336234,458.753162 "/><path d="M833.809313,191.816606L825.341568,157.927525L837.824036,153.984255 "/><path d="M825.469814,45.548982L837.814569,77.428190L845.042321,83.673748 "/><path d="M836.025066,124.209464L853.059083,182.178073L854.116077,185.805121L860.397264,210.668169L862.760308,219.334581L875.403042,265.741578L879.240756,279.819660 "/><path d="M837.746793,86.525049L846.903529,120.696476 "/><path d="M845.042321,83.673748L900.045926,66.005389 "/><path d="M959.222829,149.581827L935.257145,156.223819L853.059083,182.178073 "/><path d="M860.397264,210.668169L915.132690,200.568481L934.471384,197.882000 "/><path d="M892.811859,43.004310L900.045926,66.005389L914.858701,60.039190 "/><path d="M973.119309,443.060428L903.552995,460.064788 "/><path d="M960.687610,209.857044L918.867550,217.188763L907.816627,221.324783L903.545358,226.917060L905.848407,243.011147L912.092736,247.940616L931.148189,243.341101L934.109221,255.493306 "/><path d="M925.543797,95.282226L914.858701,60.039190L910.664470,41.595750L904.724617,21.682429 "/><path d="M910.664470,41.595750L930.881921,35.654325L932.849529,36.462908L934.736945,38.465585L942.335894,67.013197L943.660518,68.219904L945.524649,68.091205L956.490786,64.571347 "/><path d="M935.257145,156.223819L945.064952,136.391489L958.007248,114.080559 "/><path d="M942.702633,15.250323L954.763382,12.237458L961.070591,6.779574 "/><path d="M970.740353,500.736286L950.874839,502.113473L951.536696,522.489796L944.963598,524.789161 "/><path d="M960.043278,179.851027L946.511740,182.209337 "/><path d="M947.536114,196.262103L960.612312,194.635721 "/><path d="M950.203685,239.389853L954.750438,256.433659 "/><path d="M973.559861,312.205651L955.572098,317.036396 "/><path d="M956.969203,87.091911L995.500884,68.756677L1000.000000,67.012542 "/><path d="M973.908433,114.784025L964.873978,111.094194L957.795438,106.466717 "/><path d="M957.801257,26.976802L977.166013,27.371516 "/><path d="M973.001210,158.933119L1000.000000,174.845619 "/><path d="M977.166013,27.371516L1000.000000,25.667174 "/><path d="M1000.000000,159.413480L996.428253,158.717109 "/></g><g class="footpath" id="footpath" stroke="orange" stroke-dasharray="1,5" stroke-width="1px"><path d="M3.362672,66.438924L1.510521,63.613876L1.001738,40.919805L0.000000,39.958577 "/><path d="M0.000000,254.705256L14.410773,254.662908L25.194505,254.632704L31.476401,254.614529L42.506905,243.985217L47.055383,239.601254L55.010410,237.747240 "/><path d="M0.000000,6.965052L20.663595,27.634348 "/><path d="M0.000000,285.165492L1.152292,285.539738L3.184845,286.560856L5.068014,288.063430L9.672203,293.964053L11.110794,298.381130L11.316671,303.099717L10.377928,307.811679L8.233489,311.521936L6.383815,315.219405L3.818454,317.889576L0.223552,319.217818L0.000000,319.234136 "/><path d="M0.000000,289.909131L0.948651,289.648371L5.068014,288.063430L7.518328,286.362627L9.566590,285.188173L12.912641,283.705798 "/><path d="M0.000000,309.757369L3.303312,308.747693L9.260249,307.002585L10.377928,307.811679L12.544519,308.646640L16.031894,309.115905L19.500216,309.090838 "/><path d="M0.000000,367.540796L0.157300,367.488252L8.688351,357.937143 "/><path d="M0.000000,122.976885L12.680982,123.063202L19.560954,116.079683L21.218433,116.079974L24.483610,116.176841 "/><path d="M31.757524,378.888988L26.461904,385.423428L0.000000,392.869646 "/><path d="M0.157300,367.488252L26.461904,385.423428L35.005086,416.856216 "/><path d="M4.199554,411.747062L10.463003,409.873611L17.036314,409.258480L19.807880,409.977986L21.963001,411.210965L23.195429,412.854648L24.733232,419.627800L35.005086,416.856216L43.936958,414.398939L47.740580,401.662696L51.837696,396.540374 "/><path d="M14.410773,254.662908L5.469914,246.065198L5.277381,231.158397 "/><path d="M25.194505,254.632704L25.300225,241.035595L22.659802,235.629667 "/><path d="M47.382434,0.000000L47.290267,0.316238L43.663515,11.627315L39.489076,24.639541L38.217587,28.606760 "/><path d="M42.506905,243.985217L41.714729,242.579148L42.334970,219.172676L44.165020,217.690009 "/><path d="M52.423858,43.368235L57.519380,38.862369L61.075898,35.723662 "/><path d="M68.501275,39.018200L71.884972,39.442439L77.297680,38.037347L82.660457,37.710762L82.826020,31.374448L96.418223,32.923661L107.204181,37.939094L109.259368,67.033903L106.466808,81.439525L103.188713,91.479611L97.166189,100.299530L97.141816,109.832923L97.109139,123.757456L97.064913,138.124952L100.707234,150.881622L101.701991,154.367716L101.309883,165.724278L105.298623,192.212935L90.837015,213.896878L81.636946,222.440233L78.351979,225.720244L73.421042,228.351595L55.010410,237.747240 "/><path d="M61.075898,35.723662L68.501275,39.018200 "/><path d="M82.660457,37.710762L92.879610,44.639263L95.107958,66.614556L95.292028,90.194494L97.166189,100.299530 "/><path d="M87.334590,339.140151L90.668364,343.108086L96.933184,356.423674L99.731424,357.772243 "/><path d="M87.335020,336.296181L93.468485,331.700527L102.309013,323.304735L110.475760,314.690545L117.080329,307.758099L120.437877,305.967444L125.697963,304.555815 "/><path d="M100.707234,150.881622L107.558846,153.707325L110.654806,159.671758L111.205072,166.412622L113.746107,171.606597 "/><path d="M109.741212,552.704374L101.798423,543.362425 "/><path d="M131.998903,249.269388L124.440615,233.462822L122.730041,229.347497L134.130601,224.733214L134.949982,223.398006L134.437629,218.878402L136.769035,217.890064 "/><path d="M151.434393,576.861283L159.911089,574.384310 "/><path d="M218.385339,193.144962L220.849812,200.592179 "/><path d="M316.539070,422.423486L276.696975,431.350457L272.588948,434.020753L266.325151,441.415830L264.234590,444.689746L259.368501,447.520452 "/><path d="M264.234590,444.689746L266.527624,446.442547L269.505783,450.037886L280.901600,465.234480L287.474104,475.917539L289.629366,477.561174 "/><path d="M279.892298,257.868572L280.301578,261.925916L283.691981,278.251727L284.886288,279.099235 "/><path d="M301.652010,351.894569L297.293075,332.846715L301.672614,331.749251 "/><path d="M316.539070,422.423486L308.222803,384.225130 "/><path d="M312.061678,341.360420L318.123660,369.954601 "/><path d="M330.397183,367.496608L324.302538,368.677466 "/><path d="M333.879114,18.914746L335.238244,14.343934L395.537351,0.473726 "/><path d="M338.195095,371.323280L341.904460,374.982780L349.809483,380.940797L356.382400,385.043400L366.955850,389.871622L367.748238,391.239077 "/><path d="M338.376896,663.295606L365.672439,642.606082L374.643155,637.566969 "/><path d="M342.421600,170.204161L340.611379,163.193639 "/><path d="M376.605165,429.174065L377.608412,424.160249L374.155962,408.958016 "/><path d="M404.431103,383.068206L404.519206,381.553137L400.507860,362.961265L400.672575,360.175080L401.817310,357.626462 "/><path d="M411.772712,58.714686L450.211783,49.843499L490.235310,40.856221 "/><path d="M426.795326,116.788604L431.629987,115.626746 "/><path d="M428.556242,406.366382L429.490206,411.848912L432.158550,411.335396L433.904080,418.731044L433.697293,421.119203 "/><path d="M432.972966,140.574106L434.695361,147.802838 "/><path d="M446.181452,32.381578L450.211783,49.843499L456.320635,69.860527 "/><path d="M451.045416,309.697592L446.528100,313.799756 "/><path d="M447.279055,280.956095L447.730742,282.625251L454.805149,280.994749L455.004200,281.694510 "/><path d="M473.589820,274.915448L471.725489,278.638911 "/><path d="M476.311130,330.498066L471.992874,335.569664 "/><path d="M479.848948,253.755855L517.306733,245.865945 "/><path d="M484.076268,63.030167L495.081255,60.911677 "/><path d="M504.704885,349.975825L499.509986,356.106734 "/><path d="M534.642771,141.788050L518.213239,133.570870L512.345016,128.402967 "/><path d="M534.642771,141.788050L538.914625,133.570654L549.096860,131.927022L548.384776,126.752679L545.624749,120.538364 "/><path d="M647.007049,126.999524L638.792221,124.367838L629.264640,126.011773L609.550859,124.702996L583.597833,130.616546L550.742968,137.512214L549.096860,131.927022 "/><path d="M551.895269,142.545312L551.803365,140.786290L550.742968,137.512214 "/><path d="M571.284886,333.116515L562.219680,331.691542 "/><path d="M571.284886,333.116515L564.509145,340.313275 "/><path d="M580.814361,369.914520L571.389202,369.657991 "/><path d="M580.814361,369.914520L573.441321,376.231807 "/><path d="M584.091799,135.977060L583.762513,133.216558L583.597833,130.616546 "/><path d="M585.413874,304.528759L584.096835,299.598397 "/><path d="M605.240903,429.791125L598.549188,435.691166 "/><path d="M604.794010,157.001176L610.378965,156.346137 "/><path d="M618.599881,297.626240L617.795711,291.623766 "/><path d="M633.303848,455.546121L629.483388,460.893994 "/><path d="M646.635800,556.085861L629.718419,573.137694 "/><path d="M629.756377,566.249251L646.635800,556.085861 "/><path d="M638.792221,124.367838L648.319576,118.782115L655.220548,105.967819L657.291211,102.141502L659.357766,93.603054 "/><path d="M655.551729,140.795193L650.422051,136.192486L647.007049,126.999524L648.319576,118.782115 "/><path d="M661.753704,476.447440L656.413369,481.378154 "/><path d="M661.632917,181.971410L660.319550,175.725026 "/><path d="M796.915074,614.878995L800.933017,630.761130L805.348770,642.919734L809.604877,664.958414L810.619705,674.124162 "/><path d="M746.136064,568.205704L748.912176,572.917583L771.219005,590.916568L796.915074,614.878995 "/><path d="M765.435111,483.584568L772.827647,482.357659 "/><path d="M771.178942,418.692707L775.286645,417.870563 "/><path d="M773.504578,398.893825L777.780657,397.692892 "/><path d="M799.920101,332.022459L793.346734,328.736237 "/><path d="M901.114466,674.124162L900.670935,673.786639L889.777467,667.580271L871.881030,658.421717L854.383030,650.328679L846.419016,646.888690L829.644459,636.169706L814.317153,624.635138L800.559945,615.334402L796.915074,614.878995 "/><path d="M805.348770,642.919734L810.563616,645.108297L815.422828,650.943334L820.722069,654.325950L848.833266,664.189733L851.659008,665.653084L861.899600,674.124162 "/><path d="M870.365561,267.989194L875.403042,265.741578 "/><path d="M918.867550,217.188763L915.132690,200.568481 "/><path d="M977.166013,27.371516L967.331199,19.932672L963.430068,16.139238L959.705509,15.228256L954.763382,12.237458L949.671969,9.156799L942.793661,10.082373L935.604712,7.310177L926.364286,5.668167L915.083902,5.438791 "/><path d="M919.077645,388.982470L955.306853,379.353399 "/><path d="M934.471384,197.882000L947.536114,196.262103 "/><path d="M981.386796,215.811047L974.728966,232.786152L963.371698,236.209853 "/></g><g class="pedestrian" id="pedestrian" stroke="orange" stroke-dasharray="1,5" stroke-width="3px"><path d="M261.095831,658.019291L266.796958,654.944701 "/><path d="M272.653370,672.034691L275.861979,669.832966 "/><path d="M496.860539,627.272490L502.044482,632.523884L539.190211,665.758887 "/><path d="M905.335181,0.000000L915.083902,5.438791 "/><path d="M915.083902,5.438791L924.095288,11.151026 "/></g><g class="residential" id="residential_roads" stroke="yellow" stroke-width="3px"><path d="M67.048043,674.124162L80.013870,670.689397 "/><path d="M14.334441,447.211835L0.819853,449.847936L0.000000,450.083824 "/><path d="M0.000000,554.825450L4.136034,571.920960 "/><path d="M1.239500,164.321166L1.290322,158.517680L0.000000,157.357885 M0.000000,69.503212L3.362672,66.438924L8.864113,61.676430L10.713631,57.869823L11.242668,53.408159L11.371478,39.470805L13.006637,35.580701L15.016669,33.064498L20.663595,27.634348L22.049480,26.305693L29.021151,18.744384 "/><path d="M14.334441,447.211835L4.199554,411.747062L0.000000,397.042439 "/><path d="M0.000000,630.932010L8.509550,628.383856L12.705773,628.025099L16.128345,629.194110L19.899150,631.351826 "/><path d="M0.000000,513.288038L11.987847,510.459247 "/><path d="M71.318765,305.857463L67.918878,308.899910L22.759620,321.642111L0.000000,328.378423 "/><path d="M14.765069,199.664579L0.000000,184.186741 "/><path d="M55.010410,237.747240L53.629524,231.346478L50.992840,226.197370L48.199085,221.837868L44.165020,217.690009L23.497066,197.932771L19.293826,198.419939L14.765069,199.664579L10.944189,202.591325L3.217687,211.205297L0.288321,216.263562L0.184835,216.969721L0.000000,218.262635 M0.000000,227.712681L0.730003,229.231631L2.502036,231.183572 "/><path d="M2.502036,231.183572L5.277381,231.158397L20.708301,231.007072 "/><path d="M12.705773,628.025099L5.405549,601.683364L5.015632,598.383519L6.275632,596.168917L8.730203,593.614281L12.723716,591.811033L26.208544,588.147701L29.735006,586.042617L31.485157,583.115491L31.830293,579.809355L27.533223,566.012474 "/><path d="M22.759620,321.642111L19.500216,309.090838L12.912641,283.705798L11.091711,276.669377 "/><path d="M16.458996,188.667769L13.829302,187.884087L11.984561,185.912881L11.349637,182.991760L12.104173,180.622990L13.784965,178.902785L17.115453,178.094481L19.546073,178.935903L21.210937,180.695219L21.884328,182.608436L21.688684,184.983726L20.773495,186.691232L19.023853,188.103279L16.458996,188.667769 Z "/><path d="M23.497066,197.932771L19.727006,194.921226L13.829302,187.884087 "/><path d="M14.334441,447.211835L54.116682,436.382001L69.855557,432.853636L79.981908,430.280873L83.048619,428.868988L85.950852,426.513364 "/><path d="M16.083281,364.807644L22.136543,360.180037L30.999346,357.645753L45.558800,353.533124L47.561057,352.968514L76.258703,344.839234L82.587033,342.939949L84.960717,341.675610L86.541936,340.565225L87.334590,339.140151 "/><path d="M19.899150,631.351826L22.348988,634.080669L24.140190,637.483473L33.790169,674.124162 "/><path d="M19.899150,631.351826L23.544712,627.230956L26.144468,626.486711L32.898467,624.542676 "/><path d="M22.659802,235.629667L20.708301,231.007072L20.265384,224.529420 "/><path d="M21.688684,184.983726L23.372099,190.151956L23.497066,197.932771 "/><path d="M106.437047,420.937589L104.401297,414.600956L101.940686,407.776356L98.920681,404.193668L95.452673,401.284989L72.964663,380.693282L55.288266,365.135296L50.029291,358.868714L48.464042,355.851152L47.561057,352.968514 "/><path d="M101.798423,543.362425L92.494281,523.742157L68.613150,469.934182L54.116682,436.382001 "/><path d="M54.175289,288.360775L66.628755,284.960287 "/><path d="M54.218333,259.169970L55.134732,250.054009L55.010410,237.747240L59.028763,244.655592L63.169636,251.563957L66.863035,255.994205 "/><path d="M58.452378,258.111391L66.628755,284.960287L70.849006,298.827712L72.019686,303.514347L71.318765,305.857463 "/><path d="M59.583605,602.360292L98.651911,592.024018L129.415505,583.894482L151.434393,576.861283 "/><path d="M68.613150,469.934182L79.708614,464.806494L86.503817,465.975933L90.365467,473.917803 "/><path d="M76.570454,309.389169L77.837858,307.572563L79.338692,306.308095L81.731434,305.384011L83.852359,304.569021L122.621640,293.577541L146.433490,287.404882L152.608542,285.274302L155.219687,282.424243 "/><path d="M77.471133,550.112397L84.437565,559.601924L109.741212,552.704374 "/><path d="M78.916665,362.019019L84.899681,365.454525L91.001378,368.954234L93.799777,369.294901L100.622241,365.713660 "/><path d="M81.114986,281.162027L89.223329,278.685217L120.783710,269.027986L140.943343,262.854866 "/><path d="M84.899681,365.454525L88.204311,359.779926 "/><path d="M87.677508,273.780260L89.223329,278.685217 "/><path d="M89.453311,429.595395L91.942168,426.649081L96.528950,423.645298L101.119274,422.541767L106.437047,420.937589L114.254812,418.582639L117.340780,416.130710L120.981617,415.341583 "/><path d="M92.494281,523.742157L108.486828,516.445187L92.983548,477.551798 "/><path d="M98.651911,592.024018L99.195021,595.747580L99.227450,609.575825L99.750199,621.645118L100.709867,630.613713L103.656353,641.290263L109.986076,661.128343 "/><path d="M120.981617,415.341583L120.423531,409.242699L119.417450,403.760054L115.969154,396.646437L110.354706,385.070750L105.433052,374.663555L100.622241,365.713660L99.505099,360.905070L99.731424,357.772243L101.186626,354.524039L102.863748,352.065501L110.026741,349.376638L127.369240,344.570631L144.826568,339.424280 "/><path d="M106.681756,662.437507L110.090748,674.124162 "/><path d="M115.969154,396.646437L128.591527,392.905441L157.576504,384.518554L161.493032,382.843475L163.729017,380.603243L165.073094,377.695240L165.743492,374.003940L165.073890,371.204827L161.269371,365.047773L144.826568,339.424280L136.322093,325.883812L129.834799,314.917929L126.704331,307.759431L125.697963,304.555815L124.243900,299.926942L122.621640,293.577541 "/><path d="M120.981617,415.341583L123.592538,415.264906L126.122891,416.452916L129.682688,420.407995L137.524532,438.390895L139.966280,443.989280L140.833933,454.511440 "/><path d="M136.769035,217.890064L135.702171,209.203938L134.129430,176.308694L132.915783,149.139954L132.232646,133.802970L131.156886,106.300419L129.506167,56.501839L128.683008,29.660561L128.767782,25.519804L129.262105,21.533178 "/><path d="M136.919903,148.434312L139.604375,140.204489L143.934299,136.083548L145.082993,133.637755L141.131595,53.717199L139.828664,35.882835L135.809944,32.499070L128.683008,29.660561 "/><path d="M129.415505,583.894482L133.991985,602.300654L138.453456,622.324591 "/><path d="M141.057684,0.000000L155.366019,2.476221L158.829641,0.000000 M160.964276,0.000000L166.045450,2.066681L239.452240,17.886625 "/><path d="M286.217208,491.016801L259.368501,447.520452L257.779961,444.939553L248.489947,429.685279L225.443364,391.709968L191.982389,339.763832L157.470156,286.173687L155.219687,282.424243L142.685063,263.355839L140.943343,262.854866L138.788418,260.620493L131.998903,249.269388 "/><path d="M132.193633,452.070768L138.405193,466.252926L140.981265,469.533781L143.794612,473.520843L154.220151,497.307526 "/><path d="M139.175678,226.923036L138.020133,222.955449L136.769035,217.890064 "/><path d="M142.685063,263.355839L158.289213,256.873841L180.079798,247.599874L188.532565,244.365274L192.843134,242.959827L201.460342,240.970645L234.305927,233.276701L239.657673,232.025356L247.176142,230.241359L255.368353,228.296907L272.135551,224.324503 "/><path d="M143.794612,473.520843L162.753932,464.561213L167.348256,462.385466 "/><path d="M151.876989,498.597607L154.220151,497.307526L159.725723,494.964991 "/><path d="M153.867564,560.696546L168.875872,556.409982L172.134046,555.479505L227.671995,539.628708 "/><path d="M173.483858,601.349108L155.179015,604.749351 "/><path d="M157.470156,286.173687L204.817601,276.016676L212.447219,274.329083L258.921531,263.227332L279.892298,257.868572L302.206619,252.817899L312.791462,250.122331L329.799902,245.777241L334.841788,240.654554 "/><path d="M162.753932,464.561213L166.994817,472.464502L171.331781,477.504567L175.431887,478.442348L180.588964,476.568375L194.946312,468.962557L211.995080,459.931754L212.776196,458.718495L214.104858,456.651460L214.223930,452.902312L212.582041,448.331245L211.058713,444.935012L211.529985,441.301458L219.849494,436.378340 "/><path d="M182.493870,622.458459L163.453726,626.487812 "/><path d="M165.162440,585.818615L179.512330,581.775864L194.451800,577.489152L236.046221,565.565505 "/><path d="M165.335507,141.851230L166.749134,164.051057L168.923113,198.140437 "/><path d="M165.637554,645.355860L173.157589,672.396950 "/><path d="M174.312289,139.464151L170.754353,59.042941L184.186489,56.149199 "/><path d="M175.431887,478.442348L190.547062,506.569227 "/><path d="M178.000362,611.653416L202.327959,604.831932L243.987825,593.145704 "/><path d="M187.140196,68.051840L190.822655,67.262624L207.863658,71.745517L228.947627,69.044956L236.641908,65.463463 "/><path d="M191.209651,639.715869L222.747067,629.813506L245.351820,623.216155L250.654571,621.759351L283.669332,612.710252L323.177283,601.472031L348.327586,594.315470 "/><path d="M194.946312,468.962557L211.875830,501.647576L214.861026,511.072149 "/><path d="M253.593396,384.124453L250.229608,370.328006L248.588000,362.592001L245.426485,356.030677L241.327016,350.053462L236.285858,343.723062L233.709995,338.336603L232.420315,333.996695L230.782931,322.980164L229.727140,315.013093L227.855735,309.273610L223.400356,303.296333L219.182185,298.840564L212.739838,294.744065L209.811643,291.578796L206.998526,286.301423L204.817601,276.016676 "/><path d="M205.944573,262.034482L209.355493,261.245212L213.482282,260.295518 "/><path d="M209.355493,261.245212L212.447219,274.329083 "/><path d="M212.776196,458.718495L229.219928,488.642843 "/><path d="M214.413505,177.531606L228.588836,174.323153L231.739543,171.440976L242.657132,169.188678 "/><path d="M250.654571,621.759351L246.873413,605.549018L243.987825,593.145704L240.489672,581.005540L236.046221,565.565505L227.671995,539.628708L224.296456,527.860884L222.493884,521.575721L219.145182,509.872091 "/><path d="M244.345094,674.124162L243.203240,671.756031L241.507529,667.621523L222.747067,629.813506 "/><path d="M225.443364,391.709968L229.348440,389.386391L253.593396,384.124453L267.666377,381.069863L285.276704,377.193747L298.273870,374.183853L305.830967,372.502414 "/><path d="M227.671995,539.628708L302.409444,518.398450 "/><path d="M231.739543,171.440976L229.420768,161.592781 "/><path d="M231.517965,439.627928L248.489947,429.685279 "/><path d="M236.046221,565.565505L316.439132,542.383785 "/><path d="M238.897441,456.153198L257.779961,444.939553 "/><path d="M318.402395,35.342019L289.625584,29.497940L280.351024,27.821643L264.887085,24.854411L239.111380,19.876729 "/><path d="M241.507529,667.621523L261.095831,658.019291 "/><path d="M243.834394,473.705387L249.285244,482.263481L259.639658,498.512914 "/><path d="M243.987825,593.145704L332.777572,567.922782 "/><path d="M245.351820,623.216155L266.796958,654.944701L275.861979,669.832966 "/><path d="M245.475750,484.721910L249.285244,482.263481 "/><path d="M268.287416,674.124162L272.653370,672.034691 "/><path d="M256.358839,153.422916L272.088116,150.509686L319.076837,139.580289L334.737021,137.385711 "/><path d="M285.276704,377.193747L280.844961,359.962663L280.493139,355.276183L280.727103,349.768017L280.493893,345.896862L276.980135,339.219989L274.201185,335.252327L272.034798,330.745451L269.608564,320.762465L262.923207,292.232320L261.867468,282.737350L262.220012,278.635131L261.282634,272.780195L258.921531,263.227332 "/><path d="M272.088116,150.509686L269.241186,137.958746L315.793292,127.459495L319.076837,139.580289 "/><path d="M269.608564,320.762465L292.849862,315.365277 "/><path d="M279.892298,257.868572L272.135551,224.324503L270.639244,218.848292 "/><path d="M272.088116,150.509686L276.044782,167.907660L323.397479,156.413276L319.076837,139.580289 "/><path d="M280.351024,27.821643L282.127726,0.000000 "/><path d="M283.669332,612.710252L289.499558,622.019411L291.382953,625.659580L290.720260,630.140546L286.186671,636.649868 "/><path d="M284.886288,279.099235L288.270407,278.348383L317.823947,271.770223 "/><path d="M286.877387,273.007005L288.270407,278.348383 "/><path d="M291.705608,310.518244L292.849862,315.365277L297.293075,332.846715 "/><path d="M301.249491,674.124162L299.695345,671.304950L307.062277,663.280735 "/><path d="M300.970137,515.740550L314.775807,511.863964L318.600498,510.792114L348.359475,502.608688L371.609880,495.971810L385.836467,492.306738L448.910061,473.691238 "/><path d="M305.830967,372.502414L305.517300,369.003603L301.652010,351.894569 "/><path d="M305.830967,372.502414L318.123660,369.954601L324.302538,368.677466 "/><path d="M338.195095,371.323280L336.564571,366.123148L332.806278,349.059103L332.687927,343.782024L332.806831,340.032870L330.946813,332.085048L328.589277,321.986562L320.625113,287.184338L319.921192,280.270171L321.797240,276.174465L318.279378,273.477919L317.823947,271.770223L316.874814,268.200753L312.791462,250.122331 "/><path d="M313.839946,537.100118L325.693149,533.730507L331.167970,532.177260L351.662127,526.355694L378.266493,518.884367L391.815560,515.077998L455.061902,497.463850 "/><path d="M340.611379,163.193639L334.737021,137.385711L331.170281,123.062928L325.337895,102.089089L320.715151,81.834333L318.465652,62.651834L317.578105,55.057157L318.402395,35.342019L320.045622,18.509423L321.328693,0.000000 "/><path d="M320.045622,18.509423L333.879114,18.914746L336.600039,29.135225L380.137590,18.544819 "/><path d="M321.797240,276.174465L356.245058,303.242354L361.516198,307.813520L363.744014,311.325261L364.210858,315.196421L363.510009,321.051240L363.391142,324.922371L365.381523,330.546211L368.076459,332.889568L370.430720,334.590926L380.379898,341.794391L384.950631,345.370414L393.854790,352.342672L398.659079,355.976459L401.817310,357.626462L404.600423,357.979649L418.604201,354.616129L421.337556,354.603370L424.449878,355.624205L439.555815,367.340709 "/><path d="M327.119622,558.228538L343.884951,553.568776L350.722768,551.675318L384.502063,542.297633L398.552772,538.394955L461.573720,521.576702 "/><path d="M340.541193,644.383015L339.760554,637.526627L334.189708,640.755452L329.667887,644.119147L329.357479,648.734961L333.775245,656.727879L338.376896,663.295606L340.118821,665.273006 "/><path d="M330.397183,367.496608L336.564571,366.123148 "/><path d="M330.946813,332.085048L340.425553,329.960666 "/><path d="M331.170281,123.062928L403.074225,106.432734L406.649069,118.052689L425.493945,113.020148 "/><path d="M334.737021,137.385711L404.685245,121.268939 "/><path d="M339.997454,580.242803L358.034013,574.767713L360.534086,574.010306L361.920038,573.593090L388.926836,565.993283L404.857477,561.718300L468.100980,544.668792 "/><path d="M340.118821,665.273006L347.856614,664.143564L353.794817,665.119697L357.967803,670.082419L358.977422,674.124162 "/><path d="M347.124185,411.043071L352.280744,414.208314L356.614406,413.977432L365.990045,411.865795L372.670527,410.107090L374.155962,408.958016L375.247068,408.117073L375.480765,404.367922L372.139320,390.263477 "/><path d="M350.025814,205.962852L348.426077,199.209139 "/><path d="M354.123519,603.951899L372.144869,598.958201L373.377685,598.618009L379.442216,596.910618L400.602929,590.960319L412.084889,587.564640L475.459111,570.938673 "/><path d="M366.088039,365.225983L371.845787,363.730446 "/><path d="M373.001684,368.737941L371.845787,363.730446L366.912225,342.371550L367.498117,338.744394L368.317427,337.216522L370.430720,334.590926 "/><path d="M479.449728,399.851146L439.555815,367.340709L437.120969,370.852282L433.606541,374.723336L431.144924,376.597855L427.159668,378.003687L404.431103,383.068206L387.406636,386.861657L372.139320,390.263477L367.748238,391.239077 "/><path d="M368.001034,626.319174L386.949041,621.023692L418.841560,612.101309 "/><path d="M385.680717,463.250736L376.605165,429.174065 "/><path d="M426.364064,637.145146L422.616193,624.684218L418.841560,612.101309L415.725437,600.802374L412.084889,587.564640L408.176403,573.607875L404.857477,561.718300L402.001780,551.176894L401.615153,549.745266L398.552772,538.394955L395.122903,526.550302L391.815560,515.077998L388.672887,503.117792L385.836467,492.306738L382.364637,479.563296L378.467959,465.227722 "/><path d="M384.950631,345.370414L416.324023,307.385622 "/><path d="M404.431103,383.068206L408.760179,403.900591L410.168889,407.065597L411.692507,408.471582L415.792592,409.409002L428.556242,406.366382L431.025512,405.775824L434.191547,404.485523L435.244396,401.673678L431.144762,383.043330L429.502507,380.231418L427.159668,378.003687 "/><path d="M411.448353,263.891352L434.876480,257.831723 "/><path d="M413.978145,282.418963L419.387176,286.251746L422.449658,287.124927L447.279055,280.956095 "/><path d="M414.789701,650.960210L441.746515,674.124162 "/><path d="M428.096439,421.831658L432.196593,421.010029L433.697293,421.119203L435.362610,421.241219L438.758298,422.769208L452.819531,434.402157 "/><path d="M430.583336,632.112136L480.386387,674.124162 "/><path d="M433.050686,249.402487L434.876480,257.831723L437.318544,269.111362 "/><path d="M477.235511,575.586620L475.459111,570.938673L468.100980,544.668792L461.573720,521.576702L455.061902,497.463850L448.910061,473.691238L440.905470,446.676575 "/><path d="M445.549761,614.060009L515.404732,674.124162 "/><path d="M455.004200,281.694510L468.092600,278.748008L471.725489,278.638911L474.408983,280.680433L480.901368,297.294918 "/><path d="M526.711124,515.426678L457.321253,460.434504 "/><path d="M457.407138,599.512962L494.842858,629.179166L496.860539,627.272490L498.843760,625.397911 "/><path d="M546.002346,494.183316L524.612789,477.415086L459.193842,426.127143 "/><path d="M469.681931,219.204419L474.359618,238.001630L479.848948,253.755855L475.710738,259.032893L473.739188,267.494166L473.589820,274.915448 "/><path d="M474.359618,238.001630L509.826615,229.893530 "/><path d="M480.402982,398.618552L515.768888,426.249378L528.042606,435.577243L530.741628,439.133781L531.603038,441.958482L533.812030,444.654769L545.182392,453.603801L553.938004,460.485663 "/><path d="M496.768741,552.372731L526.451374,575.888318 "/><path d="M508.004438,222.048545L509.826615,229.893530L511.288957,236.178505 "/><path d="M511.539261,586.615900L516.141202,589.902812L526.451374,575.888318L539.801238,558.683103 "/><path d="M524.612789,477.415086L545.182392,453.603801 "/><path d="M528.300983,616.846597L532.899174,620.788300L535.529458,623.420383 "/><path d="M531.064034,511.728829L558.637017,534.756184L585.291617,557.654894L612.712333,579.577504 "/><path d="M532.899174,620.788300L552.616093,601.072798L566.417671,583.328182 "/><path d="M541.530835,248.170391L533.166505,250.102864 "/><path d="M539.190211,665.758887L548.662409,674.124162 "/><path d="M555.179913,156.347809L541.380199,159.634988 "/><path d="M552.509794,249.556878L545.982530,226.657584 "/><path d="M549.076504,277.335398L556.166157,276.057722 "/><path d="M588.696375,241.113911L552.509794,249.556878L549.267423,250.314474 "/><path d="M565.814993,199.225390L555.179913,156.347809L551.895269,142.545312 "/><path d="M577.636383,620.736037L552.616093,601.072798 "/><path d="M554.852987,269.817708L556.166157,276.057722L562.410442,303.328880L565.036784,312.855796 "/><path d="M555.136239,647.905159L585.444543,674.124162 "/><path d="M562.410442,303.328880L555.366662,304.767066 "/><path d="M558.637017,534.756184L571.802729,518.212056 "/><path d="M563.132685,579.386505L566.417671,583.328182L569.702633,585.960216 "/><path d="M566.209239,513.583525L571.802729,518.212056L575.627446,521.383332 "/><path d="M567.961546,468.400958L651.163789,535.484489 "/><path d="M570.607285,629.043443L622.427718,674.124162 "/><path d="M579.828178,290.398958L582.454420,295.001873L584.096835,299.598397 "/><path d="M632.728639,357.098579L580.814361,369.914520 "/><path d="M651.884982,285.869946L639.975767,287.924917L625.601176,289.158216L617.795711,291.623766L609.580571,292.856708L592.641014,292.042021L582.454420,295.001873 "/><path d="M588.696375,241.113911L584.094428,221.398864 "/><path d="M597.334564,191.578472L590.335945,160.288628L584.091799,135.977060 "/><path d="M585.291617,557.654894L601.118009,539.229540 "/><path d="M591.099478,328.179104L585.413874,304.528759 "/><path d="M586.625603,610.143103L658.970404,672.963975 "/><path d="M588.696375,241.113911L595.270133,268.712392 "/><path d="M639.150040,235.353251L603.809719,244.400314L595.923932,245.716661L588.696375,241.113911 "/><path d="M631.121004,202.201822L591.424792,211.319549L589.024636,211.871730 "/><path d="M591.424792,211.319549L589.353514,201.683504 "/><path d="M590.335945,160.288628L604.794010,157.001176 "/><path d="M640.287543,395.539939L632.075854,395.212939L591.986412,406.057618 "/><path d="M657.963978,674.124162L658.970404,672.963975L675.302288,653.594452L692.617843,633.473646L710.457618,612.807007L713.631361,610.771686L718.206393,609.147116L736.690601,606.815191 "/><path d="M596.064250,534.812903L601.118009,539.229540L605.631948,543.177544 "/><path d="M603.876450,590.016442L640.444715,623.140954 "/><path d="M605.240903,429.791125L682.870624,411.304440 "/><path d="M610.378965,156.346137L611.194475,160.185142L612.511495,165.109071 "/><path d="M658.340516,176.238725L652.593492,154.270511L648.321324,150.983811L611.194475,160.185142 "/><path d="M623.956474,319.960472L618.599881,297.626240 "/><path d="M621.594114,569.664958L692.617843,633.473646 "/><path d="M678.589330,392.244349L651.462529,399.487517L640.287543,395.539939L640.287239,389.627307L632.728639,357.098579L623.956474,319.960472 "/><path d="M627.464413,184.271505L631.121004,202.201822L633.808708,211.125208L639.150040,235.353251L651.884982,285.869946L658.459362,311.336903L669.962142,358.977517L678.589330,392.244349L682.870624,411.304440L689.059017,438.003949L696.017095,465.518704L703.412090,497.559365L707.111473,512.343877L702.180916,518.918117 "/><path d="M633.303848,455.546121L637.518675,451.392304L689.059017,438.003949 "/><path d="M633.808708,211.125208L666.893855,202.995926L682.006666,200.041855 "/><path d="M642.622960,545.345755L713.631361,610.771686 "/><path d="M652.593492,154.270511L656.535921,148.023827L655.551729,140.795193 "/><path d="M666.893855,202.995926L661.632917,181.971410 "/><path d="M696.017095,465.518704L665.210535,472.916345L661.753704,476.447440 "/><path d="M766.132731,335.075362L669.962142,358.977517 "/><path d="M774.460710,389.527247L682.870624,411.304440 "/><path d="M689.059017,438.003949L771.178942,418.692707 "/><path d="M780.044261,445.635696L696.017095,465.518704 "/><path d="M703.412090,497.559365L765.435111,483.584568 "/><path d="M729.320417,194.324675L748.459997,189.476055L758.317215,190.791199L761.276918,197.692198 "/><path d="M736.086904,222.141074L762.338974,215.372215 "/><path d="M757.264401,148.927810L746.811137,115.879665 "/><path d="M768.522384,343.786791L785.545908,338.597870L790.881946,334.077771L793.346734,328.736237L792.936369,321.757963L789.236692,306.151833L783.484238,281.506840 "/><path d="M773.895057,551.607891L778.821337,541.746586 "/><path d="M776.106776,426.492266L812.662413,417.044808L841.821773,409.645711L853.321578,406.357312L880.842378,400.197031L912.175530,390.761804L919.077645,388.982470 "/><path d="M824.871235,0.000000L821.405019,15.768030L817.788403,21.026266L807.277924,25.951452L794.792064,28.912354L788.548793,27.269552L782.963056,17.415750L781.319866,6.900294L778.855701,0.000000 "/><path d="M778.821337,541.746586L792.786219,528.192936L806.751147,516.276263L818.779117,507.389889L895.996474,491.278941L970.533274,476.508012 "/><path d="M788.548793,27.269552L781.652236,37.785898 "/><path d="M870.365561,267.989194L859.720058,271.508664L846.735638,275.747408L847.969758,287.251525L822.639866,294.650239L789.236692,306.151833 "/><path d="M815.511943,394.825566L813.080172,387.757651L802.797262,351.737335L798.278387,337.363909L799.920101,332.022459 "/><path d="M799.920101,332.022459L969.342058,272.525620 "/><path d="M802.797262,351.737335L972.273585,289.993379 "/><path d="M812.662413,417.044808L820.058692,449.489600 "/><path d="M965.927424,609.559073L957.921152,605.387559L895.067588,554.058260L886.027725,548.718282L841.257957,554.476377L813.327229,572.551448 "/><path d="M817.794468,270.621511L822.639866,294.650239 "/><path d="M836.194763,0.000000L844.730232,6.893029L856.554640,10.833266L867.727391,7.544849 "/><path d="M841.821773,409.645711L848.399007,441.275214 "/><path d="M853.321578,406.357312L842.796613,368.148028 "/><path d="M847.969758,287.251525L850.240663,293.664611 "/><path d="M853.608277,255.177501L859.720058,271.508664 "/><path d="M966.345035,252.380813L954.750438,256.433659L879.240756,279.819660 "/><path d="M880.842378,400.197031L888.649345,434.695915 "/><path d="M910.209225,629.822461L910.636935,648.016098L937.646808,664.542881 "/><path d="M912.175530,390.761804L920.147741,426.929720 "/><path d="M937.646808,664.542881L953.053138,674.124162 M958.900417,674.124162L958.597958,668.750831L954.587771,659.307981L958.078127,651.090060L962.289167,648.315999L968.296101,647.133733 "/><path d="M955.306853,379.353399L978.590403,379.644731 "/><path d="M958.891587,137.442048L964.530472,139.514689L996.428253,158.717109L1000.000000,160.777839 "/><path d="M959.558837,167.281148L1000.000000,190.260673 "/><path d="M960.687610,209.857044L964.794965,209.169431L981.386796,215.811047L1000.000000,223.738612 "/><path d="M1000.000000,255.987325L987.605944,250.823511L964.000311,240.986075 "/><path d="M969.190792,573.190370L1000.000000,577.582823 "/><path d="M970.058648,276.781821L973.209206,276.871155L1000.000000,287.934546 "/><path d="M971.831037,520.476971L1000.000000,507.792740 "/><path d="M974.166539,322.734011L1000.000000,331.694598 "/><path d="M974.492019,433.449756L1000.000000,441.619035 "/><path d="M976.943141,351.359398L1000.000000,359.481729 "/><path d="M978.590403,379.644731L1000.000000,387.166438 "/><path d="M979.008463,405.927302L1000.000000,413.159751 "/><path d="M981.725852,97.962792L992.448341,101.446830 "/><path d="M990.179915,109.825071L992.448341,101.446830L1000.000000,79.454257 "/></g><g class="trunk" id="trunk_roads" stroke="green" stroke-width="5px"><path d="M0.000000,349.683132L4.412935,353.962517L5.277968,354.771568L8.688351,357.937143L16.083281,364.807644L31.757524,378.888988L51.837696,396.540374L85.950852,426.513364L89.453311,429.595395 "/><path d="M0.000000,269.248886L10.354464,267.848445L28.431349,264.590369L54.218333,259.169970L58.452378,258.111391L66.863035,255.994205L84.484586,250.405299L108.514922,240.214212L124.440615,233.462822L130.964001,230.696779L139.175678,226.923036L145.136307,224.188983L167.833875,215.281160L189.034264,208.786822L220.849812,200.592179L270.657056,189.073280 "/><path d="M89.453311,429.595395L96.541946,439.341701L101.287804,448.201716L106.113963,457.934826L131.741181,514.118034L140.639990,531.927733 "/><path d="M140.639990,531.927733L153.867564,560.696546L159.911089,574.384310L165.162440,585.818615L173.483858,601.349108L178.000362,611.653416L182.493870,622.458459L191.209651,639.715869L207.743058,674.124162 "/><path d="M512.345016,128.402967L434.695361,147.802838L386.191052,159.684290L342.421600,170.204161L270.657056,189.073280 "/><path d="M512.345016,128.402967L545.624749,120.538364L622.124494,101.469222L662.814213,91.709010L697.302557,82.314576L763.132076,63.653102L825.469814,45.548982L866.065813,33.590184L890.880227,26.056326L904.724617,21.682429 "/><path d="M957.801257,26.976802L950.199153,26.047195L941.915246,22.235189L936.199880,19.006950L931.143202,17.685275L923.437979,18.013889L904.724617,21.682429L913.956320,16.005946L918.197041,13.193430L924.095288,11.151026L928.979433,10.765075L933.913529,11.586030L938.721406,12.984778L942.702633,15.250323L948.249564,18.401539L957.801257,26.976802 Z "/><path d="M957.801257,26.976802L1000.000000,54.262869 "/></g><g class="major" id="major_roads" stroke="orange" stroke-width="4px"><path d="M140.639990,531.927733L159.821333,526.531140L175.273553,522.180398L214.861026,511.072149L219.145182,509.872091L259.639658,498.512914L286.217208,491.016801L306.783886,485.266196L378.467959,465.227722L385.680717,463.250736L438.585445,448.474067L440.905470,446.676575L444.795143,443.665772L451.004856,436.751771L452.819531,434.402157L459.193842,426.127143L479.449728,399.851146L480.402982,398.618552L498.591201,376.296992L508.410646,363.483067 "/><path d="M243.376229,0.000000L239.452240,17.886625L239.111380,19.876729L233.769093,46.158858L236.641908,65.463463L238.279532,72.602433L248.273370,121.047152L256.358839,153.422916L262.515699,179.956474L270.657056,189.073280 "/><path d="M270.657056,189.073280L308.705243,219.088754L329.777482,236.982120L334.841788,240.654554L371.486492,270.457215 "/><path d="M371.486492,270.457215L381.703728,270.252243L393.524938,270.143593L411.026542,286.013954L446.528100,313.799756L471.992874,335.569664L499.509986,356.106734L508.410646,363.483067L579.602246,419.359823L598.549188,435.691166L629.483388,460.893994L656.413369,481.378154L702.180916,518.918117L738.741239,546.025966 "/><path d="M431.670810,320.058726L416.324023,307.385622L371.486492,270.457215 "/><path d="M728.883960,559.168131L668.578257,514.452219L586.027028,446.720799L498.591201,376.296992L442.684290,329.316325L431.670810,320.058726 "/><path d="M512.345016,128.402967L504.895845,98.268469L495.081255,60.911677L490.235310,40.856221L486.132005,24.017079L480.226606,0.000000 "/><path d="M701.336849,674.124162L735.322625,637.656009L741.072350,627.801121L741.485078,619.172879L739.428436,611.366588 "/><path d="M751.475953,558.344412L746.136064,568.205704L735.868094,569.850078L731.350011,564.920061L728.883960,559.168131L731.758652,553.004885L738.741239,546.025966L742.026198,547.258277L745.311345,550.538500L751.475953,558.344412 Z "/><path d="M739.428436,611.366588L736.690601,606.815191L736.279061,585.045699L735.868094,569.850078 "/><path d="M751.475953,558.344412L761.571297,553.663433L773.895057,551.607891 "/><path d="M773.895057,551.607891L790.258620,556.626482L800.182743,562.281250L813.327229,572.551448L842.495885,595.550076L862.215233,612.386658L880.701210,623.477553L904.385834,629.361103L910.209225,629.822461L923.421934,630.860452L964.414166,626.398455L1000.000000,625.084001 "/><path d="M957.801257,26.976802L956.815807,39.623965L956.490786,64.571347L956.842200,83.002522L956.934572,86.013391L956.969203,87.091911L957.795438,106.466717L958.007248,114.080559L958.891587,137.442048L959.222829,149.581827L959.558837,167.281148L960.043278,179.851027L960.612312,194.635721L960.687610,209.857044L963.371698,236.209853L964.000311,240.986075L966.345035,252.380813L969.342058,272.525620L970.058648,276.781821L972.273585,289.993379L973.559861,312.205651L974.166539,322.734011L976.943141,351.359398L978.590403,379.644731L979.008463,405.927302L974.492019,433.449756L973.119309,443.060428L970.533274,476.508012L970.740353,500.736286 "/><path d="M957.801257,26.976802L959.705509,15.228256L961.070591,6.779574L962.165144,0.000000 "/><path d="M964.414166,626.398455L967.146929,643.737858L968.296101,647.133733L975.367392,667.971170L978.233125,674.124162 "/><path d="M970.740353,500.736286L971.831037,520.476971L971.009876,554.052645L969.190792,573.190370L967.399693,599.402704L965.927424,609.559073L964.414166,626.398455 "/></g></svg>