<?xml version="1.0" encoding="utf-8"?><!DOCTYPE svg  PUBLIC '-//W3C//DTD SVG 1.1//EN'  'http://www.w3.org/Graphics/SVG/1.1/DTD/svg11.dtd'><svg enable_background="new 0 0 1000 801" height="801px" pretty_print="False" style="stroke-linejoin: round; stroke:#000; fill: none;" version="1.1" viewBox="0 0 1000 801" width="1000px" xmlns="http://www.w3.org/2000/svg" xmlns:xlink="http://www.w3.org/1999/xlink"><defs><style type="text/css"><![CDATA[path { fill-rule: evenodd; }]]></style></defs><metadata><views><view h="801.946852399" padding="0" w="1000"><proj id="laea" lat0="53.39475" lon0="-2.961715"/><bbox h="0.15" w="0.19" x="999.9" y="999.92"/></view></views></metadata><g class="roads" id="roads" stroke="black" stroke-width="3px"><path d="M49.771751,684.999052L44.730118,687.295530L30.765651,692.182155L7.443497,698.071709L0.000000,700.238299 "/><path d="M0.000000,98.981947L26.122611,114.326395L32.062939,116.119201L52.001298,123.008103L63.843838,126.862349L120.161144,145.742054L130.214517,148.847054L132.167965,149.448844 "/><path d="M0.000000,57.532348L5.090606,58.559949 "/><path d="M7.268887,228.849690L0.000000,228.848363 "/><path d="M7.164477,215.443328L7.268887,228.849690L7.365853,241.232176 "/><path d="M7.443497,698.071709L10.568316,701.937394L13.025073,707.057202L14.764216,713.091966L16.003652,717.897993 "/><path d="M49.771751,684.999052L48.463841,678.612425L39.046985,646.627602L17.609121,573.762498 "/><path d="M26.122611,114.326395L21.345190,117.128413L18.620039,122.362486L18.130798,127.238596L19.896570,131.686358L32.248464,146.669056L33.312762,147.961879L35.590123,150.797118L41.415415,156.499800L46.737165,161.716046L55.576138,171.213929 "/><path d="M27.058986,193.030428L23.747071,193.138637L18.526280,199.479335L23.642154,203.985277L27.202075,203.985898 "/><path d="M21.797391,236.224168L21.400296,216.060191L24.273839,213.705786L27.330134,213.603931 "/><path d="M27.727929,251.986454L24.450292,252.043477L21.588113,254.641054L21.788118,289.030438L30.995347,289.108830 "/><path d="M22.803871,306.346875L24.922146,303.154040L25.796858,297.894043L25.549818,292.262696 "/><path d="M23.788043,417.066159L37.842432,413.715394L51.457946,410.466873L53.437873,413.519621L57.322107,415.420820L55.009304,417.820146L54.180748,420.955623L41.145124,424.639402L28.494885,428.220798 "/><path d="M25.134630,310.007630L36.619837,310.515146L45.205575,308.219277 "/><path d="M26.122611,114.326395L32.057286,104.613423L41.162075,52.282242L50.026704,0.000000 "/><path d="M30.799512,251.986985L33.951224,251.981127L33.167248,173.283523L37.464220,169.188763L37.373151,166.225913L34.599730,163.563370L30.620138,163.665074L26.731381,168.015863L27.058986,193.030428L27.202075,203.985898L27.330134,213.603931L27.725535,243.789068L27.727929,251.986454 "/><path d="M27.653682,746.158944L29.381387,752.462464 "/><path d="M27.727929,251.986454L30.799512,251.986985L30.980415,287.189064L30.995347,289.108830 "/><path d="M55.576138,171.213929L65.728551,175.477440L75.877232,179.408153L80.134454,185.302484L84.478929,194.620399L86.988971,223.666789L87.002842,258.004946L86.671068,281.912340L84.049151,285.514695L80.118598,288.137767L47.696536,289.444413L30.995347,289.108830 "/><path d="M40.600395,328.574388L36.619837,310.515146 "/><path d="M41.145124,424.639402L37.842432,413.715394 "/><path d="M78.729380,635.531401L39.046985,646.627602 "/><path d="M43.523826,302.376518L45.205575,308.219277L52.282803,336.984894 "/><path d="M46.843868,139.574801L48.930835,140.157476L51.712188,140.938638L53.627468,141.476487 "/><path d="M84.059089,799.946852L83.078068,796.523365L62.713276,728.413393L51.022355,691.808016L49.771751,684.999052 "/><path d="M143.509684,658.206647L104.792681,669.604695L80.543409,676.333036L61.026431,681.308545L49.771751,684.999052 "/><path d="M71.031311,83.790416L61.222267,81.696312 "/><path d="M90.375104,466.037334L90.375530,463.202485L79.969088,441.117230L79.488516,439.619741L79.645468,436.381765 "/><path d="M193.917245,765.649094L187.662255,765.577993L168.427156,771.271015L152.252843,775.857231L143.742034,778.268633L112.954153,786.992953L109.660429,788.297922L83.078068,796.523365 "/><path d="M100.118172,251.345327L103.601906,250.904291 "/><path d="M107.537740,237.581708L100.150735,237.465448 "/><path d="M106.178230,219.170988L108.450621,230.971457L110.323688,233.723385L119.244526,234.057406L118.583733,239.010301L112.856514,238.900706L111.199500,246.169972 "/><path d="M108.450621,230.971457L107.568726,234.382108L107.537740,237.581708L107.456374,246.169435 "/><path d="M156.364014,0.000000L151.247136,16.738163L150.693631,18.971416L143.579216,39.505555L141.796492,46.826016L140.699676,60.558574L139.992064,73.945625L138.884500,82.270849L133.987253,126.264755L130.214517,148.847054 "/><path d="M132.167965,149.448844L134.831065,150.268301 "/><path d="M139.992064,73.945625L134.276634,73.868073 "/><path d="M134.831065,150.268301L185.842798,161.927623L236.339833,173.995488 "/><path d="M135.810006,276.646406L139.801285,275.943024L168.125762,269.381035L177.073755,267.001605L205.646100,260.125694L250.797645,248.643620 "/><path d="M140.404158,564.969767L155.665191,560.447499 "/><path d="M476.020067,103.623250L451.097693,105.395497L448.835144,105.517041L422.321711,106.930638L391.466426,104.984224L325.673666,98.338428L287.138463,92.032468L255.589371,86.392116L179.548404,54.560965L158.164467,45.612270L143.579216,39.505555 "/><path d="M143.742034,778.268633L148.727805,795.502350L157.032557,793.263685L152.252843,775.857231 "/><path d="M150.463850,55.408481L148.515615,74.036327L156.600214,75.573169L158.346113,57.495624L154.694937,56.528883L150.463850,55.408481 Z "/><path d="M153.969342,752.628322L163.384512,750.376980L165.227887,749.660496L166.250319,752.463475 "/><path d="M154.694937,56.528883L158.164467,45.612270 "/><path d="M155.582544,640.655171L158.391041,642.312920L159.382741,646.357344 "/><path d="M158.391041,642.312920L173.179205,638.347225 "/><path d="M170.521119,87.394228L162.412245,127.433084 "/><path d="M162.629512,652.827348L166.035886,664.947869L186.907474,658.519144 "/><path d="M171.655033,682.610369L168.542432,670.726661L192.898330,663.645592 "/><path d="M169.534869,291.509670L199.107148,285.075494 "/><path d="M172.103343,635.870602L173.179205,638.347225L178.032177,648.490549 "/><path d="M174.902759,681.682873L178.335923,693.924967L182.257398,707.894900 "/><path d="M178.335923,693.924967L228.139441,679.340197 "/><path d="M221.005505,320.510244L217.046397,304.946960L215.577952,299.193918L211.313782,282.408345L205.646100,260.125694L189.860480,195.818293L186.916238,183.953823L185.842798,161.927623 "/><path d="M215.577952,299.193918L198.818868,304.100310L194.098710,305.277238 M194.098710,305.277238L190.633951,306.147139L187.153674,309.218362L187.561486,313.307503L189.812385,316.584155L194.929199,317.199057L198.409409,314.742149L199.840732,310.857987L197.387661,306.966997L194.098710,305.277238 Z "/><path d="M211.237454,462.488471L194.687316,466.658950 "/><path d="M195.490369,656.190805L213.129353,651.239732L225.101080,647.887781 "/><path d="M197.148957,703.621925L201.036032,719.089242L204.999876,730.877017 "/><path d="M201.036032,719.089242L243.039196,707.127008 "/><path d="M245.744120,797.586477L240.613161,799.946852 M218.857325,799.946852L210.383108,781.533731L213.966843,779.998299 "/><path d="M211.313782,282.408345L237.943958,276.267797 "/><path d="M213.129353,651.239732L214.575046,657.376725L226.897875,654.152787 "/><path d="M219.903443,350.970365L234.041198,347.599399L236.875063,360.513278 "/><path d="M236.339833,173.995488L320.764796,190.435522L379.612577,176.002144L407.527187,169.124086 "/><path d="M249.704003,357.487661L250.379139,360.290576L252.023208,366.146003L238.942377,369.286792L237.462429,363.258595L236.875063,360.513278 "/><path d="M240.835825,200.354261L249.394173,199.804730L270.417585,203.486128L310.407889,212.256122L323.007093,209.556504 "/><path d="M255.943641,348.113387L243.030802,351.177420L240.929160,342.275921L253.643539,339.224679 "/><path d="M249.402481,731.591776L320.997701,710.582420L325.461655,727.527815 "/><path d="M250.797645,248.643620L327.615025,229.746303L388.848383,214.679354L416.362727,207.909975L458.177706,197.621011L485.844328,190.812537 "/><path d="M253.643539,339.224679L255.943641,348.113387L256.786633,351.389857L257.869942,355.549439 "/><path d="M284.800911,123.951538L271.095889,123.016136L267.358022,152.759341 "/><path d="M270.417585,203.486128L275.795576,227.202044 "/><path d="M306.004215,5.055833L305.064564,20.285882L303.357656,40.590449L274.185963,36.307115 "/><path d="M399.911205,797.999654L398.429822,799.946852 "/><path d="M399.779842,12.055234L357.807935,9.205718L333.157459,7.303754L306.004215,5.055833L291.704618,3.870923L284.611856,5.770936 "/><path d="M288.620035,617.426819L303.325670,642.071273L304.760363,644.720649L316.154221,663.362336L318.745075,668.629059L329.391325,684.422994L335.031137,694.086146L342.227874,706.366654L350.531302,720.394188L356.308654,729.999711L370.141680,752.295249L376.762509,763.506970L387.115534,781.015654L399.911205,797.999654 "/><path d="M292.018230,0.000000L291.704618,3.870923 "/><path d="M292.017192,157.387964L296.534235,113.105781L305.805957,110.130826 "/><path d="M342.348905,791.124181L330.209172,799.946852 "/><path d="M304.513639,519.878468L300.637961,500.968525 "/><path d="M332.050772,506.371575L310.554996,510.977595L308.170823,499.292473 "/><path d="M317.416167,624.608813L317.431392,625.203941L313.126692,626.349107L309.120756,611.694641 "/><path d="M311.035784,346.370782L314.115388,342.217908L352.223840,333.286947L397.364534,321.757648L415.443594,317.298021L460.022839,306.305200 "/><path d="M320.899491,637.138695L317.431392,625.203941L384.459129,606.009983 "/><path d="M323.007093,209.556504L384.121735,194.624037 "/><path d="M333.426675,658.455254L330.198901,646.725306L390.747165,629.488939 "/><path d="M399.031735,20.399774L332.550340,15.245135 "/><path d="M346.102887,679.778164L343.065854,667.869063L397.176512,652.846301 "/><path d="M360.206590,700.909111L357.035902,689.012818L403.647956,675.966879 "/><path d="M358.759436,0.000000L357.807935,9.205718 "/><path d="M370.597804,710.617224L365.636592,711.762442L362.698645,700.154131 "/><path d="M374.272210,725.022015L370.597804,710.617224L410.188182,699.752961 "/><path d="M371.904435,354.898072L395.302083,372.676073 "/><path d="M374.012849,556.831600L378.718095,555.782344L382.747892,554.835437 "/><path d="M379.612577,176.002144L384.121735,194.624037L388.848383,214.679354 "/><path d="M379.942394,137.862875L382.238935,146.469911L384.035740,153.214754 "/><path d="M424.581698,750.665502L414.288965,753.596035L413.518096,752.636130L407.026453,754.446892L393.211170,758.298709L391.402360,754.907057L390.322444,752.251342L389.028921,747.016737L387.510285,740.687857L386.159516,735.754011L384.926905,734.410125L381.546154,722.980994 "/><path d="M383.800209,397.370153L382.716752,391.796396L383.850238,387.451382L395.302083,372.676073L398.667780,368.337537L406.501782,363.173656 "/><path d="M386.159516,735.754011L417.713024,726.860247 "/><path d="M388.273073,287.156769L397.364534,321.757648 "/><path d="M392.640145,528.483904L389.484902,513.605617 "/><path d="M391.466426,104.984224L397.608037,36.052186L399.031735,20.399774L399.779842,12.055234L400.077556,8.746854L400.853477,0.000000 "/><path d="M400.050282,336.066379L397.494162,324.605301L397.364534,321.757648 "/><path d="M397.589300,128.456759L407.527187,169.124086L411.597752,187.246780L416.362727,207.909975 "/><path d="M478.885359,115.289031L397.589300,128.456759 "/><path d="M478.325276,16.568434L439.031542,14.321715L399.779842,12.055234 "/><path d="M399.911205,797.999654L402.134000,799.946852 "/><path d="M399.911205,797.999654L412.677533,782.878763L416.780320,776.857236L428.317557,763.086467L432.523296,758.069595L447.441715,740.075349L459.261058,725.574944L479.025830,701.725317L498.496406,678.585859L528.342746,641.758266L532.681694,638.072273L547.572091,620.583016L569.460856,594.883324L587.468391,573.272677L599.950388,562.278407 "/><path d="M407.026453,754.446892L409.472460,762.381993L401.728783,771.014257L402.652241,773.829942L412.677533,782.878763 "/><path d="M406.501782,363.173656L413.449444,391.029641L417.268603,406.906197L415.971135,409.497836L413.028999,413.081301 "/><path d="M406.501782,363.173656L412.725399,361.036527L428.900611,356.967100L471.496249,346.485975L502.018535,341.961883L533.792252,334.704972 "/><path d="M407.527187,169.124086L448.071014,160.262257L487.893448,151.924556 "/><path d="M415.443594,317.298021L416.836263,319.588981L418.679197,321.636783L425.944255,324.913385L457.057569,335.863100L468.111729,341.187393L470.668262,343.337556L471.496249,346.485975 "/><path d="M416.362727,207.909975L427.449899,240.642246L428.747110,244.398616L434.904954,268.107838 "/><path d="M433.566266,243.240481L446.299045,240.226734L457.555148,237.558463L506.597162,225.937823 "/><path d="M439.031542,14.321715L437.741605,30.332506L434.131222,75.382851 "/><path d="M457.555148,237.558463L454.338824,223.499349L443.063699,226.078018L446.299045,240.226734 "/><path d="M450.457198,78.102860L448.304869,101.843885L448.835144,105.517041 "/><path d="M551.994795,409.665016L482.679756,424.326044L457.014062,433.003087L452.919555,436.688964 "/><path d="M531.687367,799.946852L535.771071,797.476523L540.781909,791.608378L556.676790,773.811894L572.098211,755.010655L579.104762,746.729884L588.065150,736.170915L605.260663,716.108785L614.068204,705.703317L622.921497,695.822554L643.882892,671.581325L652.396326,661.751677L669.754935,640.786843 "/><path d="M555.986691,434.705040L482.576549,452.200997L478.104259,457.422719 "/><path d="M512.716409,19.000190L498.531108,17.957148L478.325276,16.568434 "/><path d="M502.018535,341.961883L500.370128,335.658663 "/><path d="M562.771929,460.391316L510.367911,473.190437L506.406973,476.837999 "/><path d="M706.008682,0.000000L708.810313,2.143097L714.129071,5.412679L720.271780,6.640838 "/><path d="M559.282366,26.710621L557.512014,24.541327L554.562742,22.756008L550.423113,21.777009L546.832909,21.847465L542.742913,22.743421L538.076783,22.257150L532.262238,21.047775L526.825413,19.889577L520.186778,19.352101L512.716409,19.000190 "/><path d="M514.022464,255.975680L533.792252,334.704972L543.114765,375.359013L550.636255,404.430489L551.994795,409.665016L556.906258,431.774184L555.986691,434.705040L563.737316,458.612314L562.771929,460.391316L566.019445,467.206397L572.877458,496.457005L574.923000,503.009739L583.113123,536.579751L581.064195,545.999448 "/><path d="M613.267891,181.691346L612.348556,186.727561L611.429224,191.949354L610.444919,194.560271L608.609738,197.030439L604.939306,200.422164L596.892391,203.174122L569.863119,209.881320L557.229828,213.055622L549.537626,213.055773L544.527747,211.360069L541.066991,209.382768L537.961086,207.200683L534.412534,201.345454L533.939395,200.564757L530.764749,191.599503L529.635286,185.955413L527.094000,172.190742L527.727350,169.579858L535.350583,156.806950L538.879839,151.233191L539.726843,148.833475L538.242552,144.104481L529.561971,110.438352 "/><path d="M528.492501,0.704733L536.474076,1.619724L538.389338,0.973378 "/><path d="M637.836828,196.005243L620.689920,200.171942L621.956904,205.041683L616.947140,206.737694L593.306078,212.382708L570.298312,218.309067L561.968939,220.357016L557.382622,221.201812L552.513935,221.349092L546.794361,220.850058L542.139329,219.864656L538.892238,217.957740L534.584406,214.854182L531.409808,211.680213L529.292127,208.288656L529.505771,205.677776L530.562667,204.269939L534.412534,201.345454 "/><path d="M535.771071,797.476523L529.603705,790.898210 "/><path d="M721.576433,285.838209L706.749036,290.158841L668.501194,299.491522L661.522500,303.145893L659.549812,303.657946L628.772729,311.664985L598.739505,318.948539L567.321017,326.570955L533.792252,334.704972 "/><path d="M538.110809,0.000000L538.110814,0.397453L538.389338,0.973378L539.545402,3.360266L543.124195,7.046156L545.787288,8.377148L548.652584,9.093810L561.750501,10.219805 "/><path d="M561.750501,10.219805L569.014830,10.731567L575.771705,10.424226L580.784972,9.502595L583.547195,7.966702L585.695129,5.611726L586.618363,3.563950L586.721291,0.908276L586.711220,0.000000 "/><path d="M562.594098,0.000000L561.750501,10.219805 "/><path d="M636.743038,0.000000L639.910376,6.383785L644.409558,24.461315L645.413297,30.297339 "/><path d="M572.773453,460.032712L592.524500,455.111121L625.276125,446.918824L659.668362,438.322888L755.941225,416.091090 "/><path d="M584.946439,99.251371L601.112211,95.257712L605.805923,114.723927 "/><path d="M588.186567,125.168063L590.208706,123.638586L592.150752,123.075391L595.260358,123.472035L597.160494,124.655821L598.431098,126.255578L599.194276,128.642455L599.205769,129.922296L598.458027,132.360422L597.962044,133.128345L595.638493,135.028992L592.998211,135.643408L590.857722,135.291524L589.186518,134.414887L587.564889,132.655158L586.622371,129.557971L587.015285,127.126259L588.186567,125.168063 Z "/><path d="M611.791489,0.907362L606.267005,1.925057L601.047743,3.051516L596.339692,3.256462L591.528608,2.847078L586.721291,0.908276 "/><path d="M597.962044,133.128345L600.613893,135.879908L607.837790,166.583035L610.444201,176.847261L613.267891,181.691346 "/><path d="M609.125894,128.187731L599.205769,129.922296 "/><path d="M605.805923,114.723927L609.125894,128.187731L617.971679,164.080524L619.879774,171.810685 "/><path d="M607.837790,166.583035L617.971679,164.080524 "/><path d="M613.267891,181.691346L618.136438,180.020946L635.206903,175.668690L675.513490,166.259554 "/><path d="M630.336709,62.825281L624.483993,64.041404L617.830059,65.577510L616.090298,66.703846L615.067839,68.137312L614.865715,70.287455L617.121216,84.538396 "/><path d="M623.566663,111.939523L618.548475,91.468678L617.121216,84.538396 "/><path d="M619.983672,191.769812L635.840888,187.865550L638.332405,187.257500L677.288449,177.726821L679.326503,186.269631L681.311137,194.594870L622.945320,209.137133L621.956904,205.041683 "/><path d="M622.129269,49.720082L624.483993,64.041404 "/><path d="M623.923582,157.719446L636.686273,154.698409 "/><path d="M627.939986,48.503965L630.336709,62.825281 "/><path d="M629.397187,123.297848L631.446508,132.096662L633.083387,133.018068 "/><path d="M636.686273,154.698409L634.556783,145.701228L632.572324,137.318362L632.469172,134.553908L633.083387,133.018068L635.029223,131.994099L649.226369,128.524987L664.400234,125.036545L667.956157,123.750087 "/><path d="M634.556783,145.701228L661.943929,139.262133L663.683809,139.671578L665.217722,141.207295L666.446512,144.579604L666.236800,146.870533L664.298612,148.163291L636.686273,154.698409 "/><path d="M635.206903,175.668690L638.332405,187.257500 "/><path d="M635.840888,187.865550L637.836828,196.005243 "/><path d="M679.326503,186.269631L637.836828,196.005243 "/><path d="M638.507920,112.245966L645.234454,110.773798L654.059436,108.763961 "/><path d="M640.420915,362.582914L645.804927,361.443572 "/><path d="M640.450404,120.532842L641.194606,124.193151L641.984609,128.109426 "/><path d="M641.194606,124.193151L647.818143,122.580199 "/><path d="M645.234454,110.773798L646.871675,118.196792 "/><path d="M645.413297,30.297339L649.447293,52.208012L652.236941,63.419271L654.504114,78.310102L654.790383,80.345034 "/><path d="M649.226369,128.524987L647.818143,122.580199L646.871675,118.196792 "/><path d="M654.790383,80.345034L665.937423,117.830942L667.956157,123.750087L679.965705,158.906572 "/><path d="M654.790383,80.345034L680.284572,76.580731L730.818855,70.779233L765.630006,67.211701L785.729164,65.110725L792.608345,65.762714 "/><path d="M666.649278,91.152598L682.269270,87.011309 "/><path d="M668.900951,100.565695L685.058936,95.970013 "/><path d="M672.175110,108.954852L687.695970,104.442385 "/><path d="M674.735869,118.374325L690.630691,113.868215 "/><path d="M681.606350,158.599301L683.937634,158.803919L686.055304,159.795653L687.707531,161.452935L688.760777,163.865363L688.860142,166.201068L688.154427,168.428041L686.723736,170.283910L684.785538,171.525489L682.503893,172.037580L680.184038,171.743370L678.104510,170.668440L676.517144,168.953556L675.513490,166.259554L675.593465,163.917438L676.467075,161.748050L678.027503,160.007363L679.965705,158.906572L681.606350,158.599301 Z "/><path d="M679.733828,518.970865L774.303525,495.625068 "/><path d="M695.922139,159.065451L703.934505,156.588369L699.164014,141.281815L694.988923,127.869376L690.630691,113.868215L687.695970,104.442385L685.058936,95.970013L682.269270,87.011309L680.200883,80.356269 "/><path d="M682.207411,131.882565L694.988923,127.869376 "/><path d="M684.047398,145.698332L699.164014,141.281815 "/><path d="M684.785538,171.525489L698.386850,210.034970 "/><path d="M688.760777,163.865363L695.922139,159.065451 "/><path d="M698.386850,210.034970L713.102884,250.777620L721.576433,285.838209 "/><path d="M744.977342,236.242337L730.650459,244.837725L713.102884,250.777620 "/><path d="M776.938575,553.108894L775.983864,546.229841L776.121068,544.514839L775.326379,535.095285L774.344704,525.598958L775.297764,516.262416L775.124952,505.454170L774.303525,495.625068L769.378453,470.668646L766.996456,461.985154L755.941225,416.091090L737.046911,349.413045L730.302105,321.685852L721.576433,285.838209 "/><path d="M957.186274,213.721760L947.121269,216.692664L925.896170,222.960892L847.508102,248.293692L836.664527,251.795421L820.090058,257.153557L792.706140,265.680384L788.966927,266.845440L758.156449,276.434549L755.283337,277.330709L721.576433,285.838209 "/><path d="M742.967363,673.487652L745.660492,661.034550L756.668188,639.257028L767.149514,621.894966L773.669996,608.795139L777.179861,599.208769L779.636558,590.614381L780.864331,580.785070L780.863444,572.190932L776.938575,553.108894 "/><path d="M808.002644,295.556603L763.630984,306.094357L755.283337,277.330709 "/><path d="M778.607069,524.401873L813.793379,514.498471 "/><path d="M788.966927,266.845440L779.176345,233.340204 "/><path d="M788.272500,0.000000L788.321660,10.608391L788.833657,17.660265L792.414693,38.911655L792.608345,65.762714 "/><path d="M792.414693,38.911655L808.977013,38.583467L822.731245,38.255511L845.001250,37.593663L868.904295,37.590529L875.455127,36.936915L905.073267,35.166488 "/><path d="M792.608345,65.762714L834.618403,88.839822L869.165628,107.821810L897.821798,123.559828 "/><path d="M799.485552,291.302079L792.706140,265.680384 "/><path d="M854.697562,313.193540L834.455922,319.185761L809.074185,323.284253L804.980363,327.373809L804.164345,332.288493L810.906290,361.570511L814.559828,377.433730 "/><path d="M820.090058,257.153557L808.975102,223.507801 "/><path d="M810.906290,361.570511L836.917554,353.984355L863.314093,346.615472 "/><path d="M819.474124,633.747066L814.231581,608.202034L816.524162,600.337141L872.859462,585.266274 "/><path d="M834.455922,319.185761L826.015310,285.405361L838.457746,281.474729 "/><path d="M826.143074,173.387196L838.448262,205.164166L845.652840,211.389691 "/><path d="M836.664527,251.795421L853.643955,309.578124L854.697562,313.193540L860.958622,337.976853L863.314093,346.615472L875.916313,392.873642L879.741730,406.906576 "/><path d="M838.380709,214.231853L847.508102,248.293692 "/><path d="M845.652840,211.389691L900.480047,193.777957 "/><path d="M959.467233,277.086342L935.578407,283.707049L853.643955,309.578124 "/><path d="M860.958622,337.976853L915.518514,327.909519L934.795191,325.231641 "/><path d="M893.269164,170.850642L900.480047,193.777957L915.245316,187.830880 "/><path d="M903.141510,0.000000L903.891139,13.646125L905.073267,35.166488 "/><path d="M973.319334,569.623801L903.976117,586.573675 "/><path d="M960.927355,337.168267L919.241409,344.476500L908.225926,348.599264L903.968358,354.173610L906.264031,370.216085L912.488340,375.129742L931.482682,370.544965L934.434226,382.658198 "/><path d="M905.073267,35.166488L908.877439,37.104880L909.882084,70.508599L910.021722,85.681102 "/><path d="M925.896170,222.960892L915.245316,187.830880L911.064524,169.446588L905.143706,149.597129 "/><path d="M911.064524,169.446588L931.217137,163.524203L933.178436,164.330192L935.059800,166.326445L942.634399,194.782506L943.954776,195.985342L945.812929,195.857055L956.743897,192.348477 "/><path d="M935.578407,283.707049L945.354750,263.938312L958.255527,241.698921 "/><path d="M942.999929,143.185626L955.022000,140.182415L961.308980,134.742030 "/><path d="M970.948043,627.114704L951.146234,628.487487L951.805983,648.798466L945.253965,651.090462 "/><path d="M960.285069,307.258473L946.796926,309.609229 "/><path d="M947.818024,323.616930L960.852288,321.995755 "/><path d="M950.477068,366.606376L955.009251,383.595522 "/><path d="M973.758390,439.188651L955.828314,444.003916 "/><path d="M957.220794,214.796821L995.628899,196.520361L1000.000000,194.825849 "/><path d="M974.105720,242.400121L965.100235,238.722129L958.044392,234.109495 "/><path d="M958.050142,154.874491L977.352799,155.267926 "/><path d="M973.201434,286.407637L1000.000000,302.202107 "/><path d="M974.393399,53.936972L1000.000000,48.344370 "/><path d="M977.352799,155.267926L1000.000000,153.577513 "/><path d="M1000.000000,286.864284L996.553351,286.192306 "/></g><g class="footpath" id="footpath" stroke="orange" stroke-dasharray="1,5" stroke-width="1px"><path d="M6.672298,194.210664L4.826084,191.394677L4.318918,168.773382L0.000000,164.629123 "/><path d="M0.000000,312.236129L3.140613,311.392334 "/><path d="M0.000000,381.883021L17.685087,381.831041L28.434237,381.800927L34.695989,381.782807L45.691113,371.187573L50.225002,366.817666L58.154518,364.969593 "/><path d="M0.000000,131.606233L23.917715,155.530516 "/><path d="M0.000000,411.276761L0.684040,411.379523L4.469144,412.608863L6.495179,413.626705L8.372310,415.124459L12.961737,421.006157L14.395718,425.409068L14.600937,430.112523L13.665208,434.809376L11.527648,438.507736L9.683908,442.193349L7.126775,444.854958L3.543403,446.178944L0.000000,446.437589 "/><path d="M0.000000,339.946948L0.086599,340.034634L3.504745,344.258737 "/><path d="M0.000000,417.894092L0.171532,417.829832L4.266158,416.704319L8.372310,415.124459L10.814765,413.429109L12.856458,412.258419L16.191778,410.780797 "/><path d="M0.000000,436.959098L2.930742,436.867983L6.613280,435.742392L12.551113,434.002876L13.665208,434.809376L15.824852,435.641658L19.301044,436.109416L22.758243,436.084427 "/><path d="M0.000000,495.456170L3.477393,494.294583L11.981081,484.774097 "/><path d="M0.000000,250.623398L0.507482,250.548175L15.960761,250.653353L22.818666,243.692224L24.470829,243.692513L27.725535,243.789068 "/><path d="M34.976288,505.658739L29.697654,512.172227L2.221074,519.903987 "/><path d="M3.477393,494.294583L29.697654,512.172227L38.213460,543.504211 "/><path d="M7.506712,538.411460L13.750074,536.544013L20.302305,535.930851L23.064984,536.648047L25.213195,537.877071L26.441672,539.515482L27.974547,546.266913L38.213460,543.504211L47.116687,541.054808L50.908104,528.359406L54.992077,523.253508 "/><path d="M17.685087,381.831041L8.772894,373.260907L8.580970,358.401910 "/><path d="M28.434237,381.800927L28.539610,368.247421L25.907651,362.858830 "/><path d="M52.001298,123.008103L50.458983,128.299994L46.843868,139.574801L42.682824,152.545302L41.415415,156.499800 "/><path d="M45.691113,371.187573L44.901477,369.786014L45.519714,346.454602L47.343894,344.976689 "/><path d="M55.576138,171.213929L60.655317,166.722508L64.200428,163.593865 "/><path d="M71.601995,166.877833L74.974841,167.300710L80.370191,165.900120L85.715771,165.574578L85.880798,159.258584L99.429415,160.802820L110.180787,165.802163L112.229401,194.803669L109.445805,209.163096L106.178230,219.170988L100.175024,227.962626L100.150735,237.465448L100.118172,251.345327L100.074097,265.666750L103.704745,278.382508L104.696314,281.857423L104.305471,293.177566L108.281436,319.581277L93.866218,341.195692L84.695658,349.711656L81.421227,352.981151L76.506104,355.604066L58.154518,364.969593 "/><path d="M64.200428,163.593865L71.601995,166.877833 "/><path d="M85.715771,165.574578L95.902157,172.480855L98.123372,194.385676L98.306867,217.889997L100.175024,227.962626 "/><path d="M90.375104,466.037334L93.698189,469.992543L99.942927,483.265426L102.732194,484.609668 "/><path d="M90.375530,463.202485L96.489323,458.621564L105.301496,450.252690L113.442048,441.666119L120.025434,434.755900L123.372213,432.970986L128.615431,431.563880 "/><path d="M103.704745,278.382508L110.534388,281.199145L113.620423,287.144450L114.168929,293.863697L116.701818,299.041015 "/><path d="M112.710005,678.916681L104.792681,669.604695 "/><path d="M134.896129,376.454743L127.362070,360.698871L125.656978,356.596744L137.020976,351.997251L137.837728,350.666324L137.327015,346.161214L139.650945,345.176044 "/><path d="M154.269499,702.996097L162.719010,700.527061 "/><path d="M221.005505,320.510244L223.462079,327.933577 "/><path d="M318.844618,549.053451L279.130295,557.951820L275.035443,560.613555L268.791738,567.984921L266.707882,571.248340L261.857400,574.069971 "/><path d="M266.707882,571.248340L268.993565,572.995518L271.962176,576.579325L283.321457,591.727180L289.872891,602.375977L292.021243,604.014339 "/><path d="M282.315262,385.026258L282.723232,389.070591L286.102773,405.344046L287.293251,406.188835 "/><path d="M304.005254,478.750717L299.660285,459.763948L304.025778,458.670001 "/><path d="M318.844618,549.053451L310.554996,510.977595 "/><path d="M314.381533,468.250342L320.424093,496.752823 "/><path d="M332.658256,494.302705L326.583156,495.479779 "/><path d="M336.128802,146.838681L337.483570,142.282525L397.589300,128.456759 "/><path d="M340.431164,498.117100L344.128635,501.764863L352.008313,507.703768L358.560154,511.793211L369.099700,516.605943L369.889547,517.969012 "/><path d="M340.612565,789.153123L367.820563,768.529930L376.762509,763.506970 "/><path d="M344.643989,297.642932L342.839568,290.654893 "/><path d="M378.718095,555.782344L379.718123,550.784606L376.276734,535.631126 "/><path d="M406.454772,509.824321L406.542591,508.314110L402.544097,489.781862L402.708283,487.004611L403.849344,484.464166 "/><path d="M413.772634,186.510941L452.088432,177.668178L491.983605,168.709695 "/><path d="M428.747110,244.398616L433.566266,243.240481 "/><path d="M430.502561,533.047769L431.433533,538.512717L434.093320,538.000846L435.833257,545.372776L435.627134,547.753276 "/><path d="M434.904954,268.107838L436.621830,275.313388 "/><path d="M440.120212,0.000000L439.031542,14.321715 "/><path d="M448.071014,160.262257L452.088432,177.668178L458.177706,197.621011 "/><path d="M452.919555,436.688964L448.416728,440.777976 "/><path d="M449.165254,408.039639L449.615494,409.703441L456.667213,408.078164L456.865627,408.775681 "/><path d="M475.391642,402.018347L473.533291,405.729870 "/><path d="M478.104259,457.422719L473.799854,462.478056 "/><path d="M481.630684,380.926604L518.968344,373.061972 "/><path d="M485.844328,190.812537L496.814022,188.700833 "/><path d="M506.406973,476.837999L501.228737,482.949250 "/><path d="M536.248723,269.317825L519.871872,261.127007L514.022464,255.975680 "/><path d="M536.248723,269.317825L540.506872,261.126778L550.656454,259.488411L549.946650,254.330662L547.195470,248.136277 "/><path d="M648.252659,254.576654L640.064172,251.953412L630.567146,253.592081L610.916583,252.287514L585.046788,258.182116L552.297286,265.055691L550.656454,259.488411 "/><path d="M553.445895,270.072649L553.354285,268.319267L552.297286,265.055691 "/><path d="M559.282366,26.710621L567.981179,22.461343L630.151859,27.002519L645.413297,30.297339 "/><path d="M572.773453,460.032712L563.737316,458.612314 "/><path d="M572.773453,460.032712L566.019445,467.206397 "/><path d="M582.272392,496.712706L572.877458,496.457005 "/><path d="M582.272392,496.712706L574.923000,503.009739 "/><path d="M585.539173,263.525439L585.210941,260.773790L585.046788,258.182116 "/><path d="M586.857114,431.536623L585.544296,426.622072 "/><path d="M606.620640,556.397281L599.950388,562.278407 "/><path d="M606.175009,284.482122L611.742053,283.829180 "/><path d="M619.936695,424.656217L619.135100,418.672992 "/><path d="M634.593609,582.069668L630.785403,587.400394 "/><path d="M647.882870,682.286987L631.019751,699.284148 "/><path d="M631.057583,692.417796L647.882870,682.286987 "/><path d="M699.674771,0.000000L698.650173,1.497537L696.625835,0.000000 M653.063866,0.000000L647.029515,2.927837L639.910376,6.383785 "/><path d="M640.064172,251.953412L649.560972,246.385595L656.439806,233.612388L658.503826,229.798340L660.563748,221.287272 "/><path d="M645.413297,30.297339L691.712851,39.451741L709.141620,43.718731L713.497765,31.316726L714.149361,20.841170L711.531348,11.671309L705.308208,6.430833L708.810313,2.143097 "/><path d="M691.712851,39.451741L667.152307,19.155069L647.029515,2.927837 "/><path d="M656.769946,268.328076L651.656715,263.740133L648.252659,254.576654L649.560972,246.385595 "/><path d="M709.141620,43.718731L691.229251,52.934908L678.131362,56.212191L665.129155,64.915934L654.504114,78.310102 "/><path d="M662.952244,602.903943L657.629038,607.818848 "/><path d="M662.831658,309.372245L661.522500,303.145893 "/><path d="M797.680262,740.891487L801.685331,756.722689L806.086930,768.842299L810.329403,790.810303L811.341004,799.946852 "/><path d="M709.141620,43.718731L774.186987,58.296755L784.084009,58.103764 "/><path d="M709.141620,43.718731L715.486232,39.961900L723.975231,38.521393L734.784065,38.520483L744.932553,35.243194L751.154566,26.731680L753.447022,20.837796L744.930697,14.612145L741.000389,8.392465L738.054356,1.187215L737.780163,0.000000 "/><path d="M792.608345,65.762714L784.084009,58.103764L776.540355,51.321379L728.704440,17.064453L720.271780,6.640838 "/><path d="M747.064063,694.367901L749.831275,699.064668L772.066581,717.005919L797.680262,740.891487 "/><path d="M753.447022,20.837796L763.599427,19.524994L770.802723,19.524288L780.916905,17.667492L788.833657,17.660265 "/><path d="M766.301168,610.018118L773.669996,608.795139 "/><path d="M772.026538,545.334350L776.121068,544.514839 "/><path d="M774.344704,525.598958L778.607069,524.401873 "/><path d="M800.675475,458.942020L794.123185,455.666341 "/><path d="M901.545875,799.946852L901.103434,799.610159L890.244895,793.423701L872.405843,784.294528L854.963951,776.227454L847.025474,772.798501L830.304703,762.113901L815.026542,750.616333L801.313445,741.345431L797.680262,740.891487 "/><path d="M806.086930,768.842299L811.285055,771.023840L816.128688,776.840163L821.410937,780.211928L849.431993,790.044061L852.248674,791.502718L862.456707,799.946852 "/><path d="M870.894989,395.114053L875.916313,392.873642 "/><path d="M919.241409,344.476500L915.518514,327.909519 "/><path d="M977.352799,155.267926L967.549519,147.852944L963.660896,144.071677L959.948281,143.163619L955.022000,140.182415L949.946912,137.111638L943.090663,138.034248L935.924765,135.270947L926.713971,133.634208L915.469760,133.405575 "/><path d="M919.450937,515.719296L955.563959,506.121081 "/><path d="M930.471970,35.616935L925.229813,36.276877 "/><path d="M934.795191,325.231641L947.818024,323.616930 "/><path d="M981.560165,343.103162L974.923696,360.023836L963.602851,363.436565 "/></g><g class="pedestrian" id="pedestrian" stroke="orange" stroke-dasharray="1,5" stroke-width="3px"><path d="M263.579323,783.893776L269.262166,780.829043 "/><path d="M275.099809,797.864224L278.298127,795.669558 "/><path d="M352.772010,74.989316L355.337469,46.346595 "/><path d="M357.807935,9.205718L356.192971,29.964666L355.337469,46.346595 "/><path d="M498.587957,753.245427L503.755279,758.479977L540.781909,791.608378 "/><path d="M897.821798,123.559828L915.469760,133.405575 "/><path d="M915.469760,133.405575L924.452252,139.099486 "/></g><g class="residential" id="residential_roads" stroke="yellow" stroke-width="3px"><path d="M70.154846,799.946852L83.078068,796.523365 "/><path d="M17.609121,573.762498L4.137874,576.390153L0.000000,577.580704 "/><path d="M8.092003,44.584620L0.000000,42.939443 "/><path d="M14.974469,4.034069L0.000000,1.946782 "/><path d="M1.275313,516.582625L0.000000,516.948061 "/><path d="M0.000000,790.553431L2.488037,799.946852 "/><path d="M0.000000,667.375645L0.285812,668.486863L7.443497,698.071709 "/><path d="M0.000000,350.954065L2.629723,350.900957 "/><path d="M4.555995,291.779017L4.606651,285.994142L1.459234,283.165117L1.504778,263.653938L0.830401,258.240083L0.000000,256.388999 M0.000000,200.290909L6.672298,194.210664L12.156093,189.463439L13.999678,185.669038L14.527015,181.221682L14.655404,167.329023L16.285316,163.451392L18.288901,160.943257L23.917715,155.530516L25.299155,154.206121L32.248464,146.669056 "/><path d="M17.609121,573.762498L7.506712,538.411460L2.221074,519.903987L1.275313,516.582625L0.000000,512.108875 "/><path d="M0.000000,757.887916L11.803023,754.353536L15.985789,753.995926L19.397386,755.161186L23.156101,757.311981 "/><path d="M0.000000,640.410405L15.270091,636.807088 "/><path d="M74.410618,432.861388L71.021635,435.894081L26.007203,448.595448L0.000000,456.292986 "/><path d="M18.038212,327.009081L3.140613,311.392334L0.000000,308.093512 "/><path d="M8.092003,44.584620L5.090606,58.559949L0.000000,82.288297 "/><path d="M58.154518,364.969593L56.778056,358.589358L54.149824,353.456763L51.365025,349.111243L47.343894,344.976689L26.742206,325.282821L22.552446,325.768430L18.038212,327.009081L14.229587,329.926444L6.527868,338.512797L3.607899,343.554843L3.504745,344.258737L2.985138,347.893393L2.629723,350.900957L2.983975,354.267005L4.048173,356.481325L5.814525,358.427006 "/><path d="M5.814525,358.427006L8.580970,358.401910L23.962405,358.251061 "/><path d="M41.162075,52.282242L8.092003,44.584620 "/><path d="M15.776291,0.000000L14.974469,4.034069L15.202707,7.848038L8.092003,44.584620 "/><path d="M15.985789,753.995926L8.708959,727.738670L8.320291,724.449406L9.576248,722.241906L12.022946,719.695460L16.003652,717.897993L29.445234,714.246400L32.960386,712.148064L34.704923,709.230323L35.048950,705.934790L30.765651,692.182155 "/><path d="M26.007203,448.595448L22.758243,436.084427L16.191778,410.780797L14.376682,403.766941 "/><path d="M19.726701,316.047535L17.105439,315.266368L15.266612,313.301484L14.633722,310.389731L15.385838,308.028557L17.061238,306.313867L20.381045,305.508153L22.803871,306.346875L24.463398,308.100549L25.134630,310.007630L24.939616,312.375303L24.027362,314.077333L22.283332,315.484854L19.726701,316.047535 Z "/><path d="M26.742206,325.282821L22.984234,322.280937L17.105439,315.266368 "/><path d="M17.609121,573.762498L57.263780,562.967368L72.952181,559.450308L83.046057,556.885789L86.102933,555.478429L88.995858,553.130358 "/><path d="M19.352301,491.622561L25.386148,487.009790L34.220528,484.483628L48.733290,480.384178L50.729125,479.821378L79.334739,471.718149L85.642773,469.824950L88.008844,468.564665L89.584992,467.457839L90.375104,466.037334 "/><path d="M23.156101,757.311981L25.598084,760.032071L27.383544,763.423962L37.002524,799.946852 "/><path d="M23.156101,757.311981L26.789969,753.204323L29.381387,752.462464L36.113727,750.524658 "/><path d="M25.907651,362.858830L23.962405,358.251061L23.520904,351.794182 "/><path d="M24.939616,312.375303L26.617635,317.526959L26.742206,325.282821 "/><path d="M71.527498,58.360039L41.162075,52.282242 "/><path d="M109.416353,547.572450L107.387128,541.256140L104.934404,534.453426L101.924080,530.882229L98.467192,527.982880L76.051284,507.457221L58.431562,491.949138L53.189448,485.702655L51.629216,482.694771L50.729125,479.821378 "/><path d="M104.792681,669.604695L95.518365,650.047352L71.713782,596.411944L57.263780,562.967368 "/><path d="M57.322107,415.420820L69.735634,412.031228 "/><path d="M57.364994,386.323624L58.278449,377.236896L58.154518,364.969593L62.159989,371.855788L66.287587,378.741997L69.969145,383.158035 "/><path d="M61.585460,385.268437L69.735634,412.031228L73.942360,425.854181L75.109289,430.525786L74.410618,432.861388 "/><path d="M62.713276,728.413393L101.656291,718.110241L132.321226,710.006755L154.269499,702.996097 "/><path d="M85.155796,0.000000L84.802085,2.081054L79.764806,33.980337L76.232143,56.389819L75.769982,59.614948L71.031311,83.790416L63.843838,126.862349 "/><path d="M75.769982,59.614948L71.527498,58.360039 "/><path d="M71.713782,596.411944L82.773661,591.300692L89.547074,592.466378L93.396345,600.382776 "/><path d="M134.276634,73.868073L75.769982,59.614948 "/><path d="M79.645468,436.381765L80.908805,434.570984L82.404826,433.310570L84.789895,432.389448L86.904018,431.577070L125.548966,420.620813L149.284451,414.467934L155.439700,412.344182L158.042470,409.503262 "/><path d="M141.796492,46.826016L79.764806,33.980337 "/><path d="M80.543409,676.333036L87.487507,685.792127L112.710005,678.916681 "/><path d="M81.984188,488.842839L87.948019,492.267325L94.030152,495.755807L96.819577,496.095379L103.620160,492.525619 "/><path d="M84.175408,408.245140L92.257747,405.776267L123.716914,396.149986L143.811895,389.996650 "/><path d="M84.802085,2.081054L150.693631,18.971416 "/><path d="M87.948019,492.267325L91.242048,486.610920 "/><path d="M90.716880,400.887041L92.257747,405.776267 "/><path d="M92.487087,556.202503L94.967961,553.265636L99.540032,550.271482L104.115635,549.171487L109.416353,547.572450L117.209047,545.225047L120.285118,542.780980L123.914279,541.994381 "/><path d="M95.518365,650.047352L111.459622,642.773772L96.006033,604.005117 "/><path d="M101.656291,718.110241L102.197661,721.821861L102.229995,735.605761L102.751075,747.636350L103.707672,756.576184L106.644715,767.218494L112.954153,786.992953 "/><path d="M123.914279,541.994381L123.357978,535.915056L122.355120,530.449992L118.917877,523.359190L113.321427,511.820628L108.415549,501.446810L103.620160,492.525619L102.506597,487.732449L102.732194,484.609668L104.182728,481.371880L105.854470,478.921225L112.994491,476.240981L130.281373,471.450375L147.682715,466.320516 "/><path d="M109.660429,788.297922L113.058426,799.946852 "/><path d="M118.917877,523.359190L131.499770,519.630183L160.391793,511.270173L164.295760,509.600463L166.524573,507.367413L167.864338,504.468735L168.532584,500.789272L167.865127,497.999136L164.072805,491.861829L147.682715,466.320516L139.205504,452.823475L132.739007,441.892762L129.618573,434.757222L128.615431,431.563880L127.166027,426.949852L125.548966,420.620813 "/><path d="M123.914279,541.994381L126.516826,541.917948L129.039066,543.102147L132.587450,547.044540L140.404158,564.969767L142.838078,570.550198L143.702956,581.038614 "/><path d="M139.650945,345.176044L138.587497,336.517773L137.019778,303.728019L135.810006,276.646406L135.129051,261.358605L134.056723,233.944251L132.411266,184.305367L131.590730,157.550164L131.675229,153.422686L132.167965,149.448844 "/><path d="M139.801285,275.943024L142.477143,267.739591L146.793179,263.631862L147.938189,261.193912L143.999412,181.529650L142.700648,163.752478L138.694813,160.379566L131.590730,157.550164 "/><path d="M132.321226,710.006755L136.883042,728.353899L141.330218,748.313620 "/><path d="M133.987253,126.264755L158.188156,130.452983L162.412245,127.433084L168.833340,130.044749L242.004737,145.813916 "/><path d="M288.620035,617.426819L261.857400,574.069971L260.273953,571.497350L251.013720,556.291999L228.041020,518.438483L194.687316,466.658950L160.285724,413.240680L158.042470,409.503262L145.548030,390.496014L143.811895,389.996650L141.663879,387.769443L134.896129,376.454743 "/><path d="M135.090362,578.605775L141.282012,592.742449L143.849825,596.012782L146.654153,599.987056L157.046274,623.697453 "/><path d="M250.726753,106.056444L216.167460,98.015655L194.481206,92.970732L170.521119,87.394228L138.884500,82.270849 "/><path d="M142.049876,354.180047L140.898033,350.225184L139.650945,345.176044 "/><path d="M145.548030,390.496014L161.102136,384.034793L182.822836,374.790553L191.248495,371.566320L195.545240,370.165377L204.134813,368.182569L236.875063,360.513278L242.209646,359.265942L249.704003,357.487661L257.869942,355.549439L274.583368,351.589764 "/><path d="M146.654153,599.987056L165.552668,591.056146L170.132257,588.887373 "/><path d="M151.247136,16.738163L184.667795,28.651166 "/><path d="M154.710626,624.983398L157.046274,623.697453L162.534189,621.362427 "/><path d="M156.694857,686.883196L171.655033,682.610369L174.902759,681.682873L230.262597,665.882872 "/><path d="M176.248271,727.405380L158.002130,730.794731 "/><path d="M179.683305,0.000000L217.095914,11.971991L275.651374,32.365324 "/><path d="M160.285724,413.240680L207.481328,403.116211L215.086478,401.434025L261.411747,390.367846L282.315262,385.026258L304.558022,379.991768L315.108919,377.304837L332.062814,372.973671L337.088528,367.867408 "/><path d="M165.552668,591.056146L169.779958,598.934088L174.103017,603.957988L178.189976,604.892758L183.330513,603.024792L197.641815,595.443356L214.635905,586.441502L215.414516,585.232133L216.738916,583.171726L216.857603,579.434601L215.220977,574.878193L213.702532,571.492853L214.172290,567.870950L222.465117,562.963615 "/><path d="M185.229403,748.447031L166.250319,752.463475 "/><path d="M167.953529,711.924695L182.257398,707.894900L197.148957,703.621925L238.609985,691.736489 "/><path d="M168.125762,269.381035L169.534869,291.509670L171.701898,325.489731 "/><path d="M168.427156,771.271015L175.923093,798.225385 "/><path d="M177.073755,267.001605L173.527178,186.838294L186.916238,183.953823 "/><path d="M178.189976,604.892758L193.256697,632.929430 "/><path d="M180.750298,737.676641L204.999876,730.877017L246.526139,719.228238 "/><path d="M189.860480,195.818293L193.531130,195.031606L210.517488,199.500112L231.533843,196.808198L239.203447,193.238185 "/><path d="M194.481206,92.970732L192.408249,103.509995L213.797015,108.215746L216.167460,98.015655 "/><path d="M193.917245,765.649094L225.353519,755.778466L247.885779,749.202258L253.171524,747.750122L286.080406,738.730021L325.461655,727.527815L350.531302,720.394188 "/><path d="M197.641815,595.443356L214.517064,628.023549L217.492692,637.417897 "/><path d="M256.100775,510.877275L252.747766,497.125073L251.111417,489.413878L247.960037,482.873596L243.873710,476.915552L238.848714,470.605455L236.281108,465.236271L234.995561,460.910281L233.363421,449.929080L232.311011,441.987559L230.445603,436.266482L226.004508,430.308376L221.799861,425.866898L215.378171,421.783540L212.459365,418.628423L209.655265,413.367976L207.481328,403.116211 "/><path d="M208.604677,389.178855L212.004658,388.392114L216.118213,387.445463 "/><path d="M212.004658,388.392114L215.086478,401.434025 "/><path d="M215.414516,585.232133L231.805534,615.060509 "/><path d="M217.046397,304.946960L231.176269,301.748787L234.316870,298.875851L245.199447,296.630768 "/><path d="M221.218968,0.000000L217.095914,11.971991 "/><path d="M253.171524,747.750122L249.402481,731.591776L246.526139,719.228238L243.039196,707.127008L238.609985,691.736489L230.262597,665.882872L226.897875,654.152787L225.101080,647.887781L221.763110,636.221685 "/><path d="M246.882236,799.946852L245.744120,797.586477L244.053844,793.465228L225.353519,755.778466 "/><path d="M228.041020,518.438483L231.933572,516.122355L256.100775,510.877275L270.128625,507.832472L287.682476,503.968775L300.637961,500.968525L308.170823,499.292473 "/><path d="M230.262597,665.882872L304.760363,644.720649 "/><path d="M234.316870,298.875851L232.005524,289.059238 "/><path d="M234.096172,566.202775L251.013720,556.291999 "/><path d="M238.609985,691.736489L318.745075,668.629059 "/><path d="M241.451993,582.675046L260.273953,571.497350 "/><path d="M320.701724,163.213284L292.017192,157.387964L282.772373,155.717049L267.358022,152.759341L241.664971,147.797638 "/><path d="M244.053844,793.465228L263.579323,783.893776 "/><path d="M246.373125,600.170945L251.806501,608.701591L262.127719,624.898910 "/><path d="M246.526139,719.228238L335.031137,694.086146 "/><path d="M247.885779,749.202258L269.262166,780.829043L278.298127,795.669558 "/><path d="M248.009224,611.152140L251.806501,608.701591 "/><path d="M270.748159,799.946852L275.099809,797.864224 "/><path d="M258.857205,280.915555L274.536039,278.011658L321.374069,267.117280L336.984032,264.929730 "/><path d="M287.682476,503.968775L283.264934,486.792950L282.914238,482.121500L283.147448,476.630998L282.914983,472.772256L279.412489,466.116798L276.642448,462.161861L274.483006,457.669439L272.064546,447.718468L265.400610,419.279818L264.348250,409.815297L264.699661,405.726233L263.765285,399.890074L261.411747,390.367846 "/><path d="M274.536039,278.011658L271.698231,265.500968L318.101046,255.035357L321.374069,267.117280 "/><path d="M272.064546,447.718468L295.231310,442.338573 "/><path d="M282.315262,385.026258L274.583368,351.589764L273.091857,346.131115 "/><path d="M274.536039,278.011658L278.480028,295.353837L325.680866,283.896284L321.374069,267.117280 "/><path d="M282.772373,155.717049L284.800911,123.951538L287.138463,92.032468 "/><path d="M286.080406,738.730021L291.891942,748.009324L293.769299,751.637818L293.108735,756.104416L288.589688,762.592866 "/><path d="M287.293251,406.188835L290.666517,405.440389L320.125279,398.883305 "/><path d="M289.277961,400.116140L290.666517,405.440389 "/><path d="M294.090722,437.507085L295.231310,442.338573L299.660285,459.763948 "/><path d="M303.604160,799.946852L302.055064,797.136807L309.398366,789.138320 "/><path d="M303.325670,642.071273L317.087065,638.207110L320.899491,637.138695L350.563031,628.981493L373.738871,622.365884L387.919834,618.712556L450.791151,600.156713 "/><path d="M308.170823,499.292473L307.858159,495.804882L304.005254,478.750717 "/><path d="M308.170823,499.292473L320.424093,496.752823L326.583156,495.479779 "/><path d="M340.431164,498.117100L338.805865,492.933645L335.059614,475.924324L334.941638,470.664167L335.060159,466.927037L333.206101,459.004703L330.856119,448.938603L322.917473,414.247988L322.215805,407.355994L324.085834,403.273421L320.579252,400.585524L320.125279,398.883305L319.179188,395.325282L315.108919,377.304837 "/><path d="M316.154221,663.362336L327.969411,660.003524L333.426675,658.455254L353.855106,652.652345L380.374152,645.204960L393.879767,641.410789L456.923279,623.853086 "/><path d="M342.839568,290.654893L336.984032,264.929730L333.428720,250.652880L327.615025,229.746303L323.007093,209.556504L320.764796,190.435522L319.880090,182.865199L320.701724,163.213284L322.339671,146.434666L325.673666,98.338428L330.350926,44.156623L332.126404,22.335432L332.550340,15.245135L333.157459,7.303754 "/><path d="M322.339671,146.434666L336.128802,146.838681L338.841007,157.026383L382.238935,146.469911 "/><path d="M324.085834,403.273421L358.423200,430.254486L363.677440,434.810991L365.898114,438.311468L366.363463,442.170214L365.664866,448.006258L365.546382,451.864975L367.530383,457.470779L370.216679,459.806619L372.563392,461.502521L382.480669,468.682879L387.036747,472.247431L395.912356,479.197325L400.701240,482.819456L403.849344,484.464166L406.623533,484.816219L420.582401,481.463476L423.306991,481.450756L426.409333,482.468316L441.466835,494.147237 "/><path d="M329.391325,684.422994L346.102887,679.778164L352.918776,677.890774L386.589741,668.543140L400.595390,664.652968L463.414230,647.888609 "/><path d="M371.789169,47.550470L355.337469,46.346595L330.350926,44.156623 "/><path d="M342.769910,770.301180L341.991769,763.466780L336.438791,766.685254L331.931472,770.038165L331.622063,774.639177L336.025666,782.606461L340.612565,789.153123L342.348905,791.124181 "/><path d="M332.658256,494.302705L338.805865,492.933645 "/><path d="M333.206101,459.004703L342.654443,456.887127 "/><path d="M333.428720,250.652880L405.102071,234.075971L408.665459,245.658660L427.449899,240.642246 "/><path d="M336.984032,264.929730L406.707935,248.864598 "/><path d="M342.227874,706.366654L360.206590,700.909111L362.698645,700.154131L364.080152,699.738252L391.000339,692.162799L406.879891,687.901515L469.920572,670.906643 "/><path d="M342.348905,791.124181L350.061884,789.998355L355.981045,790.971355L360.140651,795.918160L361.147014,799.946852 "/><path d="M349.331645,537.709511L354.471670,540.864601L358.791434,540.634456L368.137006,538.529585L374.796063,536.776516L376.276734,535.631126L377.364340,534.792879L377.597286,531.055751L374.266548,516.996538 "/><path d="M352.223840,333.286947L350.629228,326.554892 "/><path d="M356.308654,729.999711L374.272210,725.022015L375.501072,724.682914L381.546154,722.980994L402.639005,717.049763L414.084142,713.664966L477.255124,697.092276 "/><path d="M368.234656,492.039339L373.973940,490.548595 "/><path d="M375.126132,495.540031L373.973940,490.548595L369.056184,469.258195L369.640195,465.642670L370.456877,464.119698L372.563392,461.502521 "/><path d="M481.232836,526.553394L441.466835,494.147237L439.039800,497.647551L435.536644,501.506193L433.082922,503.374703L429.110448,504.776029L406.454772,509.824321L389.484902,513.605617L374.266548,516.996538L369.889547,517.969012 "/><path d="M370.141680,752.295249L389.028921,747.016737L420.819161,738.122946 "/><path d="M387.764565,589.749731L378.718095,555.782344 "/><path d="M428.317557,763.086467L424.581698,750.665502L420.819161,738.122946L417.713024,726.860247L414.084142,713.664966L410.188182,699.752961L406.879891,687.901515L404.033345,677.393916L403.647956,675.966879L400.595390,664.652968L397.176512,652.846301L393.879767,641.410789L390.747165,629.488939L387.919834,618.712556L384.459129,606.009983L380.574939,591.720382 "/><path d="M387.036747,472.247431L418.309506,434.384430 "/><path d="M406.454772,509.824321L410.769978,530.589898L412.174172,533.744753L413.692906,535.146228L417.779843,536.080639L430.502561,533.047769L432.963911,532.459103L436.119793,531.172938L437.169264,528.370109L433.082765,509.799508L431.445775,506.996614L429.110448,504.776029 "/><path d="M413.449444,391.029641L436.802437,384.989430 "/><path d="M415.971135,409.497836L421.362823,413.318325L424.415484,414.188704L449.165254,408.039639 "/><path d="M416.780320,776.857236L443.650661,799.946852 "/><path d="M422.321711,106.930638L424.409387,83.976736 "/><path d="M430.044242,548.463451L434.131247,547.644454L435.627134,547.753276L437.287111,547.874900L440.671910,549.397988L454.688060,560.993623 "/><path d="M432.523296,758.069595L482.166650,799.946852 "/><path d="M434.982493,376.587226L436.802437,384.989430L439.236677,396.232895 "/><path d="M479.025830,701.725317L477.255124,697.092276L469.920572,670.906643L463.414230,647.888609L456.923279,623.853086L450.791151,600.156713L442.812212,573.228687 "/><path d="M447.441715,740.075349L517.072723,799.946852 "/><path d="M456.865627,408.775681L469.912052,405.838619L473.533291,405.729870L476.208181,407.764843L482.679756,424.326044 "/><path d="M528.342746,641.758266L459.175362,586.942485 "/><path d="M459.261058,725.574944L496.576747,755.145990L498.587957,753.245427L500.564817,751.376858 "/><path d="M547.572091,620.583016L526.251115,603.868572L461.041924,552.745141 "/><path d="M471.496249,346.485975L476.158948,365.222903L481.630684,380.926604L477.505748,386.186723L475.540526,394.620863L475.391642,402.018347 "/><path d="M476.158948,365.222903L511.512203,357.140783 "/><path d="M482.183032,525.324752L517.435543,552.866949L529.669908,562.164894L532.360276,565.710024L533.218926,568.525666L535.420836,571.213306L546.754741,580.133632L555.482280,586.993420 "/><path d="M498.496406,678.585859L528.083867,702.026016 "/><path d="M509.695864,349.320957L511.512203,357.140783L512.969860,363.405602 "/><path d="M512.716409,19.000190L514.334000,0.263299L514.359785,0.000000 "/><path d="M513.219581,712.719206L517.806767,715.995575L528.083867,702.026016L541.390909,684.875967 "/><path d="M516.154376,82.627504L516.554967,78.538407L516.451928,74.647689L515.856700,69.656309L516.352673,65.362437L517.050857,60.774201L515.753599,54.784549L515.055364,50.292308L516.154146,43.905892L516.405946,41.826148L516.951511,37.321101 "/><path d="M516.405946,41.826148L523.838226,42.408421 "/><path d="M516.554967,78.538407L522.041495,78.538368 "/><path d="M559.282366,26.710621L558.763581,31.241272L558.073138,37.320535L557.371283,45.204375L555.875784,50.790915L551.885015,55.283239L548.191800,58.079761L543.399741,60.069995L538.710674,60.972354L532.922774,61.471569L522.941778,60.870145L517.050857,60.774201 "/><path d="M526.251115,603.868572L546.754741,580.133632 "/><path d="M529.927570,742.852948L534.511018,746.782008L537.132868,749.405649 "/><path d="M532.681694,638.072273L560.166270,661.025766L586.735408,683.851027L614.068204,705.703317 "/><path d="M534.511018,746.782008L554.164696,727.129718L567.922004,709.441997 "/><path d="M543.114765,375.359013L534.777259,377.285294 "/><path d="M540.781909,791.608378L550.223772,799.946852 "/><path d="M556.720015,283.830881L542.964556,287.107528 "/><path d="M554.058517,376.741047L547.552170,353.915191 "/><path d="M549.889994,77.635712L550.485101,72.612322L550.885653,69.252730L550.385715,62.565566L548.191800,58.079761 "/><path d="M550.485101,72.612322L557.371870,73.047332 "/><path d="M550.636255,404.430489L557.703171,403.156906 "/><path d="M590.129049,368.325133L554.058517,376.741047L550.826544,377.496216 "/><path d="M567.321017,326.570955L556.720015,283.830881L553.445895,270.072649 "/><path d="M579.104762,746.729884L554.164696,727.129718 "/><path d="M555.875784,50.790915L561.465383,55.782177L565.357094,57.778640L570.248417,59.071158L577.932590,60.369989L584.021936,61.272096L587.314639,62.667020L591.008010,65.559341L594.899854,70.352216 "/><path d="M556.394209,396.936902L557.703171,403.156906L563.927449,430.340605L566.545375,439.836968 "/><path d="M556.676790,773.811894L586.887980,799.946852 "/><path d="M563.927449,430.340605L556.906258,431.774184 "/><path d="M558.763581,31.241272L566.455225,29.430119L574.738241,27.932489L582.822895,27.836267L597.794237,28.930035L597.294651,35.118088 "/><path d="M560.166270,661.025766L573.289751,644.534684 "/><path d="M564.647549,705.512962L567.922004,709.441997L571.196433,712.065589 "/><path d="M567.714197,639.920998L573.289751,644.534684L577.102205,647.695788 "/><path d="M569.460856,594.883324L652.396326,661.751677 "/><path d="M572.098211,755.010655L623.752583,799.946852 "/><path d="M581.289321,417.452136L583.907144,422.040289L585.544296,426.622072 "/><path d="M634.020182,483.937830L582.272392,496.712706 "/><path d="M653.115049,412.937603L641.244026,414.985991L626.915532,416.215345L619.135100,418.672992L610.946305,419.901986L594.061070,419.089922L583.907144,422.040289 "/><path d="M590.129049,368.325133L585.541847,348.673311 "/><path d="M598.739505,318.948539L591.763310,287.759040L585.539173,263.525439 "/><path d="M586.735408,683.851027L602.511036,665.484750 "/><path d="M592.524500,455.111121L586.857114,431.536623 "/><path d="M588.065150,736.170915L660.177993,798.790285 "/><path d="M590.129049,368.325133L596.681743,395.835106 "/><path d="M640.420915,362.582914L605.193929,371.600987L597.333431,372.913117L590.129049,368.325133 "/><path d="M632.417605,329.537801L592.848697,338.626314L590.456239,339.176726 "/><path d="M592.848697,338.626314L590.784055,329.021171 "/><path d="M591.008010,65.559341L595.399360,61.566085 "/><path d="M591.763310,287.759040L606.175009,284.482122 "/><path d="M641.554870,522.255911L633.369514,521.929965L593.408639,532.739892 "/><path d="M659.174708,799.946852L660.177993,798.790285L676.457491,779.482867L693.717506,759.426574L711.500059,738.826198L714.663622,736.797401L719.223983,735.178038L737.648914,732.853580 "/><path d="M597.473481,661.082279L602.511036,665.484750L607.010502,669.420090 "/><path d="M605.260663,716.108785L641.711681,749.127050 "/><path d="M606.620640,556.397281L684.001405,537.969831 "/><path d="M608.464139,85.984976L617.121216,84.538396L654.504114,78.310102 "/><path d="M611.742053,283.829180L612.554951,287.655873L613.867750,292.564011 "/><path d="M659.549812,303.657946L653.821205,281.760184L649.562734,278.484026L612.554951,287.655873 "/><path d="M625.276125,446.918824L619.936695,424.656217 "/><path d="M622.921497,695.822554L693.717506,759.426574 "/><path d="M679.733828,518.970865L652.694022,526.190823L641.554870,522.255911L641.554564,516.362240L634.020182,483.937830L625.276125,446.918824 "/><path d="M628.772729,311.664985L632.417605,329.537801L635.096696,338.432569L640.420915,362.582914L653.115049,412.937603L659.668362,438.322888L671.134285,485.810719L679.733828,518.970865L684.001405,537.969831L690.169970,564.583716L697.105751,592.010232L704.477052,623.948139L708.164581,638.685238L703.249840,645.238398 "/><path d="M634.593609,582.069668L638.794916,577.929169L690.169970,564.583716 "/><path d="M635.096696,338.432569L668.075739,330.329335L683.140085,327.384728 "/><path d="M643.882892,671.581325L714.663622,736.797401 "/><path d="M653.821205,281.760184L657.750987,275.533529L656.769946,268.328076 "/><path d="M668.075739,330.329335L662.831658,309.372245 "/><path d="M697.105751,592.010232L666.397987,599.384169L662.952244,602.903943 "/><path d="M766.996456,461.985154L671.134285,485.810719 "/><path d="M775.297764,516.262416L684.001405,537.969831 "/><path d="M690.169970,564.583716L772.026538,545.334350 "/><path d="M780.863444,572.190932L697.105751,592.010232 "/><path d="M704.477052,623.948139L766.301168,610.018118 "/><path d="M720.271780,6.640838L725.181817,3.773590L726.342953,0.000000 "/><path d="M730.302105,321.685852L749.380305,316.852770L759.205913,318.163690L762.156129,325.042557 "/><path d="M737.046911,349.413045L763.214791,342.665876 "/><path d="M758.156449,276.434549L747.736686,243.492391 "/><path d="M778.860073,125.692747L771.326671,108.665213L767.395299,93.601865L765.756955,77.885568L765.630006,67.211701 "/><path d="M769.378453,470.668646L786.347381,465.496354L791.666305,460.990746L794.123185,455.666341L793.714132,448.710445L790.026310,433.154363L784.292287,408.588406 "/><path d="M774.734027,677.823296L779.644502,667.993612 "/><path d="M776.938575,553.108894L813.376978,543.691709L842.442824,536.316321L853.905750,533.038461L881.338291,526.897917L912.570957,517.492927L919.450937,515.719296 "/><path d="M834.618403,88.839822L828.305472,101.779791L825.691149,127.325746L822.091296,143.701749L818.486281,148.943125L808.009510,153.852523L795.563692,156.803938L789.340441,155.166409L783.772610,145.344209L782.134683,134.862476L778.860073,125.692747 "/><path d="M828.305472,101.779791L815.535261,101.781300L802.109269,106.044696L794.250093,111.612868L788.356183,120.450806L778.860073,125.692747 "/><path d="M779.644502,667.993612L793.564594,654.483418L807.484731,642.604950L819.474124,633.747066L896.443849,617.687734L970.741613,602.964126 "/><path d="M789.340441,155.166409L782.466006,165.649035 "/><path d="M870.894989,395.114053L860.283626,398.622244L847.340848,402.847403L848.571017,414.314628L823.322358,421.689631L790.026310,433.154363 "/><path d="M816.217356,521.543719L813.793379,514.498471L803.543421,478.593672L799.039029,464.266342L800.675475,458.942020 "/><path d="M800.675475,458.942020L969.554089,399.635870 "/><path d="M803.543421,478.593672L972.476225,417.047612 "/><path d="M808.977013,38.583467L808.646370,16.314258 "/><path d="M813.376978,543.691709L820.749559,576.032452 "/><path d="M966.150617,735.588518L958.170016,731.430387L895.517980,680.265732L886.507104,674.942884L841.880908,680.682542L814.039760,698.699666 "/><path d="M818.492483,397.737962L823.322358,421.689631 "/><path d="M822.731245,38.255511L823.020270,62.489281L823.062665,66.085631 "/><path d="M823.020270,62.489281L827.320186,62.482368 "/><path d="M825.691149,127.325746L836.824731,127.977111L845.341703,134.855193L857.128195,138.782787L868.265115,135.504909 "/><path d="M842.442824,536.316321L848.998986,567.844391 "/><path d="M845.001250,37.593663L843.673130,0.000000 "/><path d="M853.905750,533.038461L843.414512,494.951713 "/><path d="M848.571017,414.314628L850.834644,420.707147 "/><path d="M854.191434,382.343456L860.283626,398.622244 "/><path d="M868.904295,37.590529L868.907445,60.845253L868.255461,64.115337L862.361110,67.066163L859.740036,67.719230 "/><path d="M868.255461,64.115337L871.529493,67.391288 "/><path d="M875.455127,36.936915L874.862593,0.000000 "/><path d="M966.566663,379.555666L955.009251,383.595522L879.741730,406.906576 "/><path d="M881.338291,526.897917L889.120244,561.286164 "/><path d="M934.411491,0.000000L937.347191,35.615840L930.471970,35.616935 "/><path d="M903.891139,13.646125L916.229746,13.234717 "/><path d="M925.229813,36.276877L908.877439,37.104880 "/><path d="M909.882084,70.508599L933.930125,68.770687 "/><path d="M910.611109,755.786961L911.037459,773.922254L937.960726,790.396021 "/><path d="M912.570957,517.492927L920.517625,553.544854 "/><path d="M937.960726,790.396021L953.318116,799.946852 M959.146201,799.946852L958.844692,794.590464L954.847359,785.177898L958.326517,776.986328L962.524051,774.221160L968.511721,773.042682 "/><path d="M971.515698,70.633008L941.800777,65.902576L942.146296,55.561399L946.578372,47.222506L951.442099,42.179128L958.481542,43.048244 "/><path d="M980.373802,20.570449L961.891858,17.041283L955.409352,15.193004 "/><path d="M955.563959,506.121081L978.772843,506.411463 "/><path d="M959.137045,264.985494L964.757849,267.051485L996.553351,286.192306L1000.000000,288.180857 "/><path d="M959.802174,294.728904L1000.000000,317.570126 "/><path d="M960.927355,337.168267L965.021537,336.482855L981.560165,343.103162L1000.000000,350.956874 "/><path d="M961.891858,17.041283L964.600761,0.000000 "/><path d="M1000.000000,383.103218L987.759392,378.003344L964.229452,368.197470 "/><path d="M969.403497,699.336442L1000.000000,703.698550 "/><path d="M970.268383,403.878422L973.408838,403.967467L1000.000000,414.948399 "/><path d="M972.035241,646.792083L1000.000000,634.199783 "/><path d="M974.363129,449.683249L1000.000000,458.575628 "/><path d="M974.687636,560.043947L1000.000000,568.150560 "/><path d="M977.130845,478.216837L1000.000000,486.273028 "/><path d="M978.772843,506.411463L1000.000000,513.869060 "/><path d="M979.189579,532.609751L1000.000000,539.779783 "/><path d="M981.898060,225.632826L992.586166,229.105684 "/><path d="M983.086267,126.873626L985.384797,114.586736L987.912717,105.013068 "/><path d="M1000.000000,119.683253L995.946367,116.984536L985.384797,114.586736 "/><path d="M989.444511,93.846174L991.403458,81.802510L993.085765,59.181003 "/><path d="M990.325020,237.457060L992.586166,229.105684L1000.000000,207.514453 "/><path d="M1000.000000,83.063202L991.403458,81.802510 "/></g><g class="trunk" id="trunk_roads" stroke="green" stroke-width="5px"><path d="M0.000000,396.695642L1.781898,396.578354L0.000000,397.320098 "/><path d="M0.000000,473.326469L7.719373,480.812220L8.581632,481.618676L11.981081,484.774097L19.352301,491.622561L34.976288,505.658739L54.992077,523.253508L88.995858,553.130358L92.487087,556.202503 "/><path d="M1.781898,396.578354L13.641794,394.974297L31.660708,391.726657L57.364994,386.323624L61.585460,385.268437L69.969145,383.158035L87.534183,377.587041L111.487452,367.428620L127.362070,360.698871L133.864535,357.941694L142.049876,354.180047L147.991388,351.454758L170.616163,342.575487L191.748562,336.101962L223.462079,327.933577L273.109592,316.451586 "/><path d="M92.487087,556.202503L99.552996,565.917550L104.283641,574.749149L109.094329,584.451044L134.639400,640.454067L143.509684,658.206647 "/><path d="M143.509684,658.206647L156.694857,686.883196L162.719010,700.527061L167.953529,711.924695L176.248271,727.405380L180.750298,737.676641L185.229403,748.447031L193.917245,765.649094L210.397565,799.946852 "/><path d="M514.022464,255.975680L436.621830,275.313388L388.273073,287.156769L344.643989,297.642932L273.109592,316.451586 "/><path d="M514.022464,255.975680L547.195470,248.136277L623.449882,229.128238L664.009110,219.399300L698.386850,210.034970L764.005254,191.433299L826.143074,173.387196L866.608882,161.466723L891.343715,153.957009L905.143706,149.597129 "/><path d="M958.050142,154.874491L950.472416,153.947869L942.215071,150.148093L936.518032,146.930210L931.477569,145.612776L923.797055,145.940342L905.143706,149.597129L914.345801,143.938844L918.572921,141.135344L924.452252,139.099486L929.320734,138.714770L934.239008,139.533089L939.031468,140.927348L942.999929,143.185626L948.529075,146.326733L958.050142,154.874491 Z "/><path d="M958.050142,154.874491L1000.000000,181.999589 "/></g><g class="major" id="major_roads" stroke="orange" stroke-width="4px"><path d="M143.509684,658.206647L162.629512,652.827348L178.032177,648.490549L217.492692,637.417897L221.763110,636.221685L262.127719,624.898910L288.620035,617.426819L309.120756,611.694641L380.574939,591.720382L387.764565,589.749731L440.499628,575.020416L442.812212,573.228687L446.689409,570.227536L452.879205,563.335703L454.688060,560.993623L461.041924,552.745141L481.232836,526.553394L482.183032,525.324752L500.312911,503.074762L510.100858,490.301923 "/><path d="M284.611856,5.770936L282.960136,2.027268L279.598705,0.000000 "/><path d="M284.611856,5.770936L283.836881,11.715739L275.651374,32.365324L274.185963,36.307115L255.589371,86.392116L250.726753,106.056444L242.004737,145.813916L241.664971,147.797638L236.339833,173.995488L239.203447,193.238185L240.835825,200.354261L250.797645,248.643620L258.857205,280.915555L264.994338,307.364021L273.109592,316.451586 "/><path d="M273.109592,316.451586L311.035784,346.370782L332.040460,364.206754L337.088528,367.867408L373.615737,397.574474 "/><path d="M373.615737,397.574474L383.800209,397.370153L395.583510,397.261844L413.028999,413.081301L448.416728,440.777976L473.799854,462.478056L501.228737,482.949250L510.100858,490.301923L581.064195,545.999448L599.950388,562.278407L630.785403,587.400394L657.629038,607.818848L703.249840,645.238398L739.692937,672.259294 "/><path d="M433.607086,447.016884L418.309506,434.384430L373.615737,397.574474 "/><path d="M729.867277,685.359321L669.754935,640.786843L587.468391,573.272677L500.312911,503.074762L444.585254,456.244789L433.607086,447.016884 "/><path d="M514.022464,255.975680L506.597162,225.937823L496.814022,188.700833L491.983605,168.709695L487.893448,151.924556L478.885359,115.289031L476.020067,103.623250L474.791573,95.841801L478.325276,16.568434L479.759262,0.000000 "/><path d="M702.408459,799.946852L736.285343,763.595498L742.016625,753.772209L742.428023,745.171636L740.377972,737.390380 "/><path d="M752.386821,684.538229L747.064063,694.367901L736.829021,696.007008L732.325423,691.092803L729.867277,685.359321L732.732747,679.215837L739.692937,672.259294L742.967363,673.487652L746.241977,676.757353L752.386821,684.538229 Z "/><path d="M740.377972,737.390380L737.648914,732.853580L737.238679,711.153899L736.829021,696.007008 "/><path d="M752.386821,684.538229L762.449788,679.872255L774.734027,677.823296 "/><path d="M774.734027,677.823296L791.045117,682.825784L800.937420,688.462412L814.039760,698.699666L843.114891,721.624524L862.771014,738.407102L881.197717,749.462418L904.806392,755.327086L910.611109,755.786961L923.781448,756.821615L964.642222,752.373901L1000.000000,751.067849 "/><path d="M958.050142,154.874491L957.067861,167.481097L956.743897,192.348477L957.094196,210.720547L957.186274,213.721760L957.220794,214.796821L958.044392,234.109495L958.255527,241.698921L959.137045,264.985494L959.467233,277.086342L959.802174,294.728904L960.285069,307.258473L960.852288,321.995755L960.927355,337.168267L963.602851,363.436565L964.229452,368.197470L966.566663,379.555666L969.554089,399.635870L970.268383,403.878422L972.476225,417.047612L973.758390,439.188651L974.363129,449.683249L977.130845,478.216837L978.772843,506.411463L979.189579,532.609751L974.687636,560.043947L973.319334,569.623801L970.741613,602.964126L970.948043,627.114704 "/><path d="M958.050142,154.874491L959.948281,143.163619L961.308980,134.742030L963.858837,118.948349L966.400840,102.028407L971.199340,72.469635L971.515698,70.633008L974.393399,53.936972L980.373802,20.570449L983.711048,0.000000 "/><path d="M964.642222,752.373901L967.366232,769.657698L968.511721,773.042682L975.560349,793.813293L978.417036,799.946852 "/><path d="M970.948043,627.114704L972.035241,646.792083L971.216735,680.260087L969.403497,699.336442L967.618157,725.464718L966.150617,735.588518L964.642222,752.373901 "/></g></svg>